<svg width="24" height="24" viewBox="0 0 24 24" fill="none" xmlns="http://www.w3.org/2000/svg">
<path d="M24 12C24 18.6274 18.6274 24 12 24C5.37258 24 0 18.6274 0 12C0 5.37258 5.37258 0 12 0C18.6274 0 24 5.37258 24 12Z" fill="#FF9500"/>
<path d="M20.8008 12C20.8008 7.13989 16.8601 3.19922 12 3.19922C7.13989 3.19922 3.19922 7.13989 3.19922 12C3.19922 16.8601 7.13989 20.8008 12 20.8008V24C5.37258 24 0 18.6274 0 12C0 5.37258 5.37258 0 12 0C18.6274 0 24 5.37258 24 12C24 18.6274 18.6274 24 12 24V20.8008C16.8601 20.8008 20.8008 16.8601 20.8008 12Z" fill="#FFDA00"/>
<path d="M10 10.8C10 10.3582 10.3582 10 10.8 10H13.2C13.6418 10 14 10.3582 14 10.8V13.2C14 13.6418 13.6418 14 13.2 14H10.8C10.3582 14 10 13.6418 10 13.2V10.8Z" fill="white"/>
<path d="M10 13.1992C10 13.5858 10.2741 13.9098 10.6387 13.9844L10.8008 14H13.1992C13.641 14 14 13.641 14 13.1992V10.8008C14 10.359 13.641 10 13.1992 10V8C14.7456 8 16 9.25438 16 10.8008V13.1992C16 14.7456 14.7456 16 13.1992 16H10.8008C9.25438 16 8 14.7456 8 13.1992V10.8008C8 9.25438 9.25438 8 10.8008 8V10L10.6387 10.0156C10.2741 10.0902 10 10.4142 10 10.8008V13.1992ZM13.1992 8V10H10.8008V8H13.1992Z" fill="#FFDA00"/>
</svg>
