<svg width="48" height="48" viewBox="0 0 48 48" fill="none" xmlns="http://www.w3.org/2000/svg">
<path d="M28.923 33.1219C28.0146 27.7892 26.69 26.418 25.6151 24.5156C23.8204 21.3326 22.8019 19.6065 21.9767 17.2046C21.1736 14.8639 21.0439 13.3973 21.0071 12.7313C20.9239 11.2794 21.083 10.158 21.1442 9.75889C21.6168 6.7767 23.0981 4.54127 24.1314 3.26074C22.1848 3.78471 19.3838 4.32581 15.9878 4.28174C12.9493 4.24501 10.4176 3.75288 8.58858 3.26074C10.1556 5.9075 10.8142 8.21148 11.1178 9.69033C11.4361 11.228 11.4606 12.2906 11.4631 12.5942C11.4704 13.1891 11.4533 14.8492 10.7432 17.207C10.1164 19.2882 9.06848 21.0388 7.10482 24.5181C6.02994 26.4229 4.70778 27.7941 3.79695 33.1243C2.91551 38.2979 7.79038 41.5347 9.6659 42.5557C9.45288 42.8397 9.32801 43.1825 9.32801 43.5522C9.32801 44.5193 10.1801 45.3028 11.2305 45.3028H21.9767C23.0271 45.3028 23.8792 44.5193 23.8792 43.5522C23.8792 43.0943 23.6882 42.6806 23.3772 42.3696C25.4364 41.1748 29.7506 38.0138 28.9156 33.1243L28.923 33.1219Z" fill="url(#paint0_linear_362_22071)"/>
<path d="M25.594 24.5454C25.5573 24.4989 25.5035 24.4304 25.4251 24.3569C25.4251 24.3569 25.3076 24.2492 25.1484 24.1561C24.9599 24.046 24.4408 23.8476 23.7308 23.6591C23.6475 23.4241 23.53 23.3016 23.4394 23.2306C23.2607 23.0935 23.0942 23.096 23.0207 22.9393C22.9791 22.8462 22.9962 22.7556 23.0134 22.6553C23.0746 22.3149 23.3121 22.1901 23.2754 22.1239C23.1799 21.9575 21.6398 22.7532 21.5565 22.7948C21.5051 22.8217 21.4096 22.8707 21.3019 22.9638C21.2236 23.0299 20.9861 23.2331 20.8955 23.5661C20.8269 23.8207 20.8955 23.9627 20.7828 24.0509C20.7192 24.0998 20.6653 24.0851 20.4964 24.09C20.3886 24.0925 20.0605 24.1023 19.8402 24.2027C19.6516 24.2884 19.5488 24.4353 19.4509 24.5797C19.1056 25.0817 19.3138 25.351 19.0714 25.5518C18.7335 25.8309 17.9916 25.5909 17.5754 25.4563C17.5386 25.444 17.5068 25.4318 17.5044 25.4318C17.1444 25.3045 16.9069 25.1233 16.8359 25.0743C16.5127 24.8588 16.0696 25.0082 15.8051 25.0988C15.6778 25.1429 15.4232 25.2041 15.1489 25.4C14.8723 25.5983 14.7107 25.826 14.625 25.968C14.7523 25.9435 14.9555 25.9166 15.2004 25.9484C15.4109 25.9753 15.7194 26.0145 15.8982 26.2324C16.0377 26.4014 16.001 26.5556 16.0549 26.7833C16.1112 27.0282 16.2777 27.3636 16.7772 27.7088L16.7674 27.7504C16.3952 27.6941 16.023 27.4762 15.7562 27.0845C15.6974 26.9988 15.6533 26.8862 15.597 26.8127C15.4893 26.678 15.3326 26.5728 15.1881 26.5042C14.9506 26.3965 14.6862 26.345 14.434 26.3695C14.4193 26.3695 14.3948 26.3744 14.3654 26.3793C14.2602 26.5409 14.1549 26.6609 14.0716 26.7417C14.5148 26.7539 14.9604 26.9057 15.3375 27.2044C15.8345 27.5962 16.0426 27.8655 16.3413 28.103C16.7527 28.4287 17.5239 28.6662 19.1007 28.1765C19.2428 28.1055 19.3823 28.0345 19.5243 27.9659C19.4044 28.0834 19.2085 28.2597 18.9318 28.4164C18.2218 28.8229 17.0955 29.0555 16.4172 28.5682C16.3487 28.5193 16.3683 28.5731 15.8149 28.0124C15.6827 27.8778 15.4991 27.7088 15.2224 27.486C14.9922 27.3024 14.6323 27.0331 14.1083 26.9204C14.0153 26.9008 13.9394 26.891 13.8904 26.8862C13.6921 26.8764 13.4228 26.8739 13.102 26.8984C12.5585 26.9376 12.152 27.0355 12.081 27.0526C11.0013 27.3269 9.93129 29.1754 9.88477 29.2587C9.94843 29.315 10.0096 29.3689 10.0733 29.4252C10.2104 29.2734 10.4087 29.0824 10.683 28.9086C11.0013 28.7053 11.3 28.6001 11.5154 28.5413C11.7823 28.4434 12.1692 28.3307 12.6466 28.2769C13.3542 28.1985 14.4928 28.0565 15.2248 28.6906C15.7194 29.1216 15.477 29.4301 16.0867 29.9467C16.738 30.4976 17.4554 30.5245 17.6023 30.5147C17.6831 30.5098 17.9524 30.4658 18.0846 30.4266C18.0944 30.4241 18.1018 30.4217 18.1091 30.4192C18.2046 30.3899 18.283 30.3605 18.3491 30.3311C18.5131 30.2576 18.6625 30.1646 18.7457 30.1328C19.0273 30.0299 19.2452 30.4217 19.8353 30.6837C20.085 30.7939 20.4915 30.9726 20.8906 30.8355C21.0154 30.7914 21.1942 30.6249 21.5516 30.2895C22.0169 29.8512 22.0609 29.7508 22.0609 29.648C22.0609 29.3982 21.7989 29.2048 21.6643 29.1191C21.4733 29.1852 21.1917 29.2611 20.844 29.2832C20.6873 29.293 20.5331 29.3028 20.3446 29.2685C20.1805 29.2391 19.8696 29.1559 19.539 28.8743C19.6076 28.84 19.6761 28.8057 19.7422 28.769C20.3421 28.9526 20.9444 29.0114 21.5394 28.8376C21.6153 28.8082 21.723 28.7788 21.7965 28.7421C21.8332 28.7249 21.8871 28.7053 21.9214 28.6833C22.0879 28.6001 22.2495 28.4972 22.4013 28.3797C22.6192 28.2108 22.8346 28.0271 22.9766 27.7749C23.0158 27.7039 23.0354 27.6378 23.0379 27.5937C23.0379 27.5668 23.0379 27.5546 23.033 27.5472C22.9644 27.4224 22.8542 27.2363 22.8297 27.2093C22.7685 27.1432 22.6902 27.0526 22.5678 26.9155C22.5727 26.8764 22.6314 26.3793 22.3156 26.1345C21.9189 25.826 21.1991 26.0953 21.0448 26.5483C20.9738 26.7564 21.0007 27.0722 21.2211 27.2412C21.4562 27.4224 21.8528 27.3856 22.127 27.1041C22.0683 27.2142 22.0095 27.322 21.9507 27.4297C21.9238 27.4566 21.5076 27.841 21.0032 27.7064C20.5184 27.5766 20.325 27.0649 20.2931 26.7441C20.227 26.0904 20.7706 25.6423 20.8881 25.5469C21.581 24.9764 22.4674 25.209 22.6167 25.253C22.7685 25.2971 23.0991 25.3951 23.3953 25.6938C23.4835 25.7819 23.7969 26.1198 23.8605 26.6438C23.9217 27.1432 23.7185 27.5154 23.5349 27.8557C23.2656 28.3503 22.9081 28.6858 22.6167 28.8988C22.9081 28.9257 23.317 28.9159 23.7626 28.7592C24.027 28.6662 24.6685 28.4409 24.9403 27.8484C24.9721 27.7774 24.9599 27.7921 24.9917 27.7211C25.2488 27.1604 25.7238 27.1555 26.025 26.7735C26.3678 26.3353 26.2429 25.7158 26.2257 25.6301C26.1547 25.2775 25.9662 25.0302 25.594 24.5381V24.5454Z" fill="white"/>
<path d="M10.3266 21.3064C10.8579 21.757 11.448 21.779 11.568 21.7692C11.6341 21.7643 11.8544 21.73 11.9622 21.6982C11.9695 21.6957 11.9768 21.6933 11.9817 21.6933C12.0601 21.6688 12.1238 21.6443 12.1776 21.6223C12.3123 21.5635 12.4347 21.4852 12.5033 21.4607C12.7334 21.3774 12.9122 21.6982 13.3945 21.9112C13.5977 22.0018 13.9307 22.1487 14.2588 22.0336C14.3616 21.9969 14.5085 21.8598 14.7975 21.5856C15.177 21.2281 15.2137 21.1448 15.2137 21.0616C15.2137 20.8559 15.0007 20.6992 14.8905 20.6307C14.7338 20.6845 14.5061 20.7482 14.2196 20.7653C14.0923 20.7727 13.965 20.78 13.8107 20.7531C13.6761 20.7286 13.4214 20.6625 13.1521 20.4323L13.3186 20.3467C13.8083 20.496 14.3004 20.545 14.7877 20.403C14.8513 20.3785 14.937 20.3564 14.9982 20.3246C15.0276 20.3124 15.0717 20.2928 15.1011 20.2781C15.2382 20.2095 15.368 20.1263 15.4953 20.0308C15.674 19.8937 15.8503 19.7419 15.9654 19.5362C15.9972 19.4775 16.0143 19.4236 16.0168 19.3893C16.0168 19.3673 16.0168 19.3575 16.0119 19.3501C15.9556 19.2473 15.865 19.0955 15.8454 19.0735C15.7964 19.0196 15.7303 18.9461 15.6299 18.8335C15.6765 18.5764 15.6006 18.3218 15.4243 18.1945C15.1133 17.9717 14.5747 18.2043 14.4963 18.525C14.4571 18.6817 14.5208 18.8923 14.6701 18.9682C14.8513 19.0637 15.1623 18.9535 15.3263 18.6401C15.3141 18.7723 15.2823 18.9413 15.1966 19.12C15.1745 19.169 15.15 19.213 15.1256 19.2547C14.817 19.6489 14.4302 19.8815 14.1853 19.7811C13.8499 19.644 13.8768 18.9119 13.9821 18.4981C14.0238 18.334 14.085 18.0916 14.2906 17.8688C14.6359 17.4942 15.1917 17.3547 15.6716 17.4746C15.8111 17.5089 16.0756 17.5995 16.3082 17.8346C16.3792 17.908 16.6363 18.1822 16.6877 18.6107C16.7366 19.0196 16.5701 19.3232 16.4208 19.6023C16.2004 20.0063 15.9066 20.2805 15.6691 20.4568C15.9066 20.4789 16.242 20.4715 16.6069 20.3442C16.8248 20.2683 17.3488 20.0847 17.5716 19.5999C17.5985 19.5436 17.5863 19.5534 17.6132 19.4946C17.6475 19.4187 18.4579 18.7184 18.4579 18.7184C18.5191 18.6646 18.9819 18.2655 18.9329 17.8101C18.879 17.2935 18.1959 16.9384 18.1053 16.8895C18.0319 16.8503 17.9682 16.8258 17.9266 16.8087C17.814 16.767 17.6964 16.7279 17.5691 16.6936C16.8297 16.4953 16.1588 16.5589 15.6691 16.6642C16.0462 16.5295 16.2959 16.27 16.3008 16.0007C16.3057 15.8097 16.1833 15.6652 16.0707 15.5404C15.6446 15.0678 14.8734 14.9038 14.8024 15.0336C14.7632 15.107 14.9664 15.2294 14.9174 15.3788C14.8832 15.4841 14.7656 15.4743 14.5991 15.5967C14.5649 15.6212 14.3151 15.8122 14.2661 16.0888C14.2221 16.341 14.3739 16.5075 14.2955 16.5761C14.2392 16.625 14.1535 16.5418 13.9381 16.5173C13.8646 16.51 13.6369 16.5026 13.4018 16.6079C13.2476 16.6765 13.1643 16.7989 13.0835 16.9164C12.802 17.3277 12.9709 17.5481 12.7726 17.7121C12.4959 17.9398 11.8911 17.744 11.5484 17.6338C11.519 17.624 11.4921 17.6142 11.4896 17.6142C11.1958 17.5089 10.9999 17.362 10.9411 17.3228C10.8848 17.2861 10.8236 17.2641 10.76 17.2494C10.7232 17.3694 10.6841 17.4918 10.6375 17.6166C10.5469 17.8664 10.449 18.099 10.3511 18.3096C10.2531 18.5177 10.285 18.6646 10.2997 18.7184C10.4147 19.12 11.0293 19.1959 11.0758 19.1983C11.1272 19.2008 11.1835 19.2008 11.2399 19.1983C11.5826 19.1812 11.8618 19.0539 12.0527 18.9388C11.5386 19.4162 10.8995 19.5803 10.4539 19.3477C10.356 19.2963 10.2115 19.1983 10.0842 18.9976C10.045 19.0857 10.0009 19.1763 9.95932 19.2644C10.0744 19.4089 10.2605 19.6121 10.5372 19.7933C10.7379 19.928 10.9926 20.0945 11.3451 20.1361C11.5973 20.1655 11.8348 20.1067 12.3123 19.9892C12.5131 19.9402 12.6771 19.8912 12.7922 19.8545C12.8852 19.8153 13.0223 19.7737 13.1839 19.7737C13.6516 19.7713 13.9944 20.0969 13.987 20.1116C13.9821 20.1214 13.8205 19.999 13.5561 19.9745C13.4312 19.9623 13.3259 19.9745 13.2451 19.9916C13.1056 19.9867 12.895 19.9916 12.6551 20.0528C12.1531 20.1753 12.1262 20.3736 11.7516 20.4495C11.2619 20.5474 10.7012 20.3295 10.4466 20.07C10.4074 20.0284 10.2948 19.9059 10.1062 19.7248C10.0009 19.6244 9.9128 19.5411 9.85403 19.4897C9.74385 19.7174 9.62878 19.95 9.50391 20.19C9.54553 20.2193 9.58471 20.2487 9.62143 20.283C10.0254 20.6356 9.8271 20.8878 10.3266 21.3113V21.3064Z" fill="white"/>
<path d="M14.5394 32.2531C14.3264 32.1282 14.133 32.0645 14.035 32.0352C13.871 31.9862 13.7216 31.9544 13.609 31.9372C13.587 31.8883 13.56 31.8295 13.5184 31.7683C13.489 31.7218 13.4351 31.641 13.3666 31.5822C13.2491 31.4843 13.1168 31.4745 12.9283 31.4598C12.7985 31.45 12.6859 31.4426 12.5586 31.5014C12.49 31.5332 12.446 31.57 12.4166 31.5944C12.375 31.6312 12.2428 31.7438 12.1913 31.9274C12.1546 32.067 12.1913 32.1453 12.1277 32.1943C12.0934 32.2212 12.0616 32.2139 11.9685 32.2163C11.9098 32.2163 11.7286 32.2237 11.6062 32.2776C11.5009 32.3241 11.447 32.4049 11.3907 32.4857C11.1997 32.7623 11.3148 32.9117 11.1801 33.0219C10.994 33.1761 10.5851 33.0439 10.3525 32.968C10.333 32.9607 10.3134 32.9558 10.3134 32.9558C10.115 32.8848 9.98283 32.7844 9.94365 32.7574C9.76492 32.6375 9.52007 32.7207 9.37316 32.7697C9.30216 32.7942 9.1626 32.8285 9.01079 32.9362C8.85899 33.0464 8.7684 33.1712 8.72187 33.2496C8.79288 33.2349 8.90551 33.2227 9.04017 33.2398C9.1577 33.2545 9.32664 33.2765 9.42458 33.3965C9.50293 33.4895 9.4809 33.5752 9.51028 33.7001C9.54211 33.8348 9.6327 34.0208 9.90937 34.2118L9.90448 34.2339C9.69881 34.202 9.49314 34.0821 9.34623 33.8666C9.3144 33.8201 9.28992 33.7564 9.25809 33.7172C9.19932 33.6413 9.11363 33.585 9.03283 33.5458C8.90061 33.4871 8.75615 33.4577 8.61659 33.4699C8.60925 33.4699 8.59456 33.4724 8.57986 33.4748C8.5211 33.5654 8.46479 33.6291 8.41827 33.6756C8.66311 33.683 8.90796 33.7662 9.11608 33.9303C9.3903 34.1457 9.50538 34.2951 9.67187 34.4273C9.89958 34.606 10.3256 34.7382 11.1973 34.4689C11.2756 34.4297 11.354 34.3906 11.4299 34.3514C11.3638 34.4175 11.256 34.513 11.1042 34.6011C10.7125 34.8264 10.0906 34.9537 9.71595 34.6868C9.67922 34.6599 9.68901 34.6893 9.38296 34.3808C9.3095 34.3049 9.20912 34.2118 9.05486 34.0894C8.92755 33.9866 8.72922 33.8397 8.4403 33.776C8.38889 33.7638 8.34726 33.7589 8.32033 33.7564C8.2126 33.7515 8.06079 33.7491 7.8845 33.7638C7.58334 33.7858 7.35809 33.8397 7.32136 33.8495C6.72394 34.0013 6.13386 35.0223 6.10938 35.0688C6.14365 35.1006 6.17793 35.13 6.21221 35.1618C6.28811 35.0786 6.39829 34.9733 6.54765 34.8778C6.72394 34.7652 6.88798 34.7064 7.00796 34.6746C7.15486 34.6207 7.37033 34.5571 7.63231 34.5277C8.02407 34.4836 8.65332 34.4052 9.05486 34.7578C9.32909 34.9953 9.19443 35.1667 9.53231 35.4532C9.89224 35.7568 10.2889 35.7715 10.3697 35.7666C10.4138 35.7641 10.5631 35.7396 10.6366 35.7176C10.6415 35.7176 10.6464 35.7152 10.6488 35.7127C10.7027 35.6956 10.7443 35.6809 10.781 35.6637C10.8716 35.6246 10.9549 35.5707 11.0014 35.5536C11.1556 35.4973 11.2781 35.7127 11.6037 35.8572C11.8608 35.9698 12.0983 35.9478 12.1864 35.9404C12.2868 35.9306 12.6198 35.8988 12.8402 35.6442C12.9014 35.5732 12.992 35.4679 12.9773 35.3332C12.9601 35.1814 12.8181 35.0492 12.6125 34.9929C12.5072 35.0296 12.3529 35.0712 12.1595 35.0835C12.0738 35.0884 11.9881 35.0933 11.8828 35.0761C11.7922 35.059 11.6208 35.0149 11.4372 34.8582C11.4739 34.8386 11.5131 34.819 11.5498 34.8019C11.8804 34.9023 12.2134 34.9366 12.5415 34.8411C12.5831 34.8239 12.6418 34.8092 12.6835 34.7872C12.7031 34.7774 12.7324 34.7652 12.752 34.7554C12.8451 34.7089 12.9332 34.6525 13.0165 34.5864C13.1364 34.4934 13.2564 34.3906 13.3348 34.251C13.3568 34.2118 13.3666 34.1751 13.369 34.1506C13.369 34.1359 13.369 34.1286 13.3666 34.1237C13.3299 34.0551 13.2687 33.9523 13.254 33.9376C13.2197 33.9009 13.1756 33.8519 13.1095 33.776C13.112 33.754 13.1438 33.4797 12.9699 33.3451C12.752 33.1761 12.3529 33.323 12.2697 33.5752C12.2305 33.6903 12.2452 33.8641 12.3676 33.9572C12.4974 34.0576 12.7153 34.0355 12.8671 33.8813C12.8353 33.9425 12.8034 34.0013 12.7692 34.0625C12.7496 34.0747 12.5072 34.2363 12.2721 34.131C12.0297 34.0233 11.9906 33.7221 11.9979 33.5507C12.0077 33.3328 12.1473 33.1908 12.206 33.1272C12.4386 32.875 12.8157 32.7795 13.1389 32.8603C13.2344 32.8848 13.4107 32.946 13.5698 33.1051C13.6188 33.1541 13.7926 33.3402 13.8269 33.6291C13.8612 33.9058 13.7485 34.1114 13.6457 34.2975C13.4964 34.5717 13.298 34.7554 13.1389 34.8753C13.3005 34.89 13.5257 34.8851 13.7706 34.7994C13.9175 34.748 14.2701 34.6232 14.4219 34.2975C14.439 34.2583 14.4317 34.2657 14.4513 34.2265C14.4635 34.1971 14.8871 33.8372 15.0217 33.7025C15.1123 33.6144 15.2152 33.5091 15.2568 33.3426C15.2886 33.2202 15.2739 33.1174 15.269 33.0782C15.2029 32.6424 14.7206 32.3584 14.537 32.2531H14.5394Z" fill="white"/>
<path d="M28.6011 33.3084C28.5816 33.2814 28.5522 33.2447 28.5081 33.2055C28.4542 33.1566 28.4028 33.1223 28.3563 33.0954C28.0258 32.8995 27.6487 32.8162 27.4234 32.7795C27.4014 32.7305 27.3745 32.6718 27.3328 32.6106C27.3035 32.5641 27.2496 32.4833 27.181 32.4245C27.0635 32.3266 26.9313 32.3168 26.7428 32.3021C26.613 32.2923 26.5004 32.2849 26.3731 32.3437C26.3045 32.3755 26.2604 32.4122 26.231 32.4367C26.1894 32.4735 26.0572 32.5861 26.0058 32.7697C25.9691 32.9093 26.0058 32.9876 25.9421 33.0366C25.9078 33.0635 25.876 33.0562 25.783 33.0586C25.7242 33.0586 25.543 33.066 25.4206 33.1198C25.3153 33.1664 25.2615 33.2472 25.2051 33.328C25.0142 33.6046 25.1292 33.754 24.9946 33.8642C24.8085 34.0184 24.3996 33.8862 24.167 33.8128C24.1474 33.8054 24.1278 33.8005 24.1278 33.8005C23.9295 33.7295 23.7973 33.6291 23.7581 33.6022C23.5794 33.4822 23.3345 33.5655 23.1876 33.6144C23.1166 33.6389 22.977 33.6732 22.8252 33.7809C22.6734 33.8911 22.5828 34.016 22.5363 34.0943C22.6073 34.0796 22.72 34.0674 22.8546 34.0845C22.9722 34.0992 23.1411 34.1213 23.239 34.2412C23.3174 34.3343 23.2953 34.42 23.3247 34.5448C23.3566 34.6795 23.4472 34.8656 23.7238 35.0566L23.7189 35.0786C23.5133 35.0468 23.3076 34.9268 23.1607 34.7113C23.1289 34.6648 23.1044 34.6011 23.0725 34.562C23.0138 34.4861 22.9281 34.4298 22.8473 34.3906C22.7151 34.3318 22.5706 34.3024 22.431 34.3147C22.4237 34.3147 22.409 34.3171 22.3943 34.3196C22.3356 34.4102 22.2792 34.4738 22.2327 34.5204C22.4776 34.5277 22.7224 34.6109 22.9305 34.775C23.2048 34.9904 23.3198 35.1398 23.4863 35.272C23.714 35.4508 24.1401 35.583 25.0117 35.3136C25.0901 35.2745 25.1684 35.2353 25.2443 35.1961C25.1782 35.2622 25.0705 35.3577 24.9187 35.4459C24.5269 35.6711 23.905 35.7984 23.5304 35.5316C23.4937 35.5046 23.5035 35.534 23.1974 35.2255C23.124 35.1496 23.0236 35.0566 22.8693 34.9341C22.742 34.8313 22.5437 34.6844 22.2548 34.6207C22.2033 34.6109 22.1617 34.6036 22.1348 34.6012C22.027 34.5963 21.8752 34.5938 21.699 34.6085C21.3978 34.6305 21.1725 34.6844 21.1358 34.6942C20.5384 34.846 19.9483 35.867 19.9238 35.9135L20.0267 36.0065C20.1026 35.9233 20.2127 35.818 20.3621 35.7225C20.3988 35.7005 20.5653 35.5952 20.8224 35.5193C20.9791 35.4728 21.1701 35.4385 21.4345 35.4385C21.934 35.4385 22.4237 35.4385 22.7738 35.7495C23.0774 36.0188 22.9379 36.222 23.2586 36.4326C23.2586 36.4326 23.6014 36.6578 24.1841 36.6089C24.238 36.604 24.38 36.5819 24.451 36.5599C24.4559 36.5599 24.4608 36.5574 24.4633 36.555C24.5343 36.533 24.5857 36.5109 24.5955 36.506C24.6322 36.4913 24.713 36.462 24.8991 36.413C24.9578 36.5158 25.0901 36.7068 25.33 36.8096C25.57 36.9149 25.7879 36.8757 26.0205 36.8366C26.2433 36.7974 26.3706 36.7754 26.4783 36.6627C26.6057 36.5305 26.6228 36.364 26.6424 36.151C26.662 35.9453 26.6179 35.9062 26.5983 35.8915C26.5347 35.8474 26.4367 35.8866 26.4073 35.9013C26.3045 35.9111 26.1551 35.9209 25.9715 35.9258C25.7756 35.9306 25.7193 35.9233 25.6948 35.9184C25.6042 35.9013 25.4328 35.8572 25.2492 35.7005C25.2859 35.6809 25.3251 35.6613 25.3618 35.6442C25.6924 35.7446 26.0254 35.7788 26.3535 35.6834C26.3951 35.6662 26.4563 35.6515 26.4955 35.6295C26.5151 35.6197 26.5444 35.6075 26.564 35.5977C26.6571 35.5511 26.7452 35.4948 26.8285 35.4287C26.9484 35.3357 27.0684 35.2328 27.1468 35.0933C27.1688 35.0541 27.1786 35.0174 27.181 34.9929C27.181 34.9782 27.181 34.9709 27.1786 34.966C27.1419 34.8974 27.0807 34.7946 27.066 34.7799C27.0317 34.7432 26.9876 34.6942 26.9215 34.6183C26.924 34.5963 26.9558 34.322 26.7819 34.1874C26.5616 34.0184 26.1649 34.1653 26.0817 34.4175C26.0425 34.5326 26.0572 34.7064 26.1796 34.7995C26.3094 34.8999 26.5273 34.8778 26.6791 34.7236C26.6473 34.7848 26.6155 34.8435 26.5812 34.9048C26.5616 34.917 26.3192 35.0786 26.0841 34.9733C25.8417 34.8656 25.8026 34.5644 25.8099 34.393C25.8197 34.1751 25.9593 34.0331 26.018 33.9695C26.2506 33.7173 26.6277 33.6218 26.9509 33.7026C27.0464 33.7271 27.2227 33.7883 27.3818 33.9474C27.4308 33.9964 27.6046 34.1825 27.6389 34.4714C27.6732 34.7481 27.5606 34.9537 27.4577 35.1398C27.3084 35.414 27.11 35.5977 26.9509 35.7176C27.0733 35.7593 27.2912 35.8107 27.5483 35.7568C27.8789 35.6858 28.1457 35.4679 28.1702 35.3504C28.1702 35.3504 28.202 35.2084 28.2339 35.1374C28.2339 35.1374 28.2388 35.1251 28.2437 35.1104C28.2486 35.0982 28.2486 35.0933 28.2608 35.0664C28.4028 34.7578 28.6648 34.7554 28.8313 34.5424C29.0223 34.3 28.9513 33.9597 28.9415 33.9107C28.9023 33.7173 28.797 33.5801 28.5914 33.3084H28.6011Z" fill="white"/>
<path d="M23.6483 2.42627H8.93553C8.37571 2.42627 7.92188 2.8801 7.92188 3.43992C7.92188 3.99975 8.37571 4.45357 8.93553 4.45357H23.6483C24.2081 4.45357 24.662 3.99975 24.662 3.43992C24.662 2.8801 24.2081 2.42627 23.6483 2.42627Z" fill="url(#paint1_linear_362_22071)"/>
<path d="M24.4811 44.6885H9.06808C8.46633 44.6885 7.97852 45.1763 7.97852 45.778C7.97852 46.3798 8.46633 46.8676 9.06808 46.8676H24.4811C25.0828 46.8676 25.5707 46.3798 25.5707 45.778C25.5707 45.1763 25.0828 44.6885 24.4811 44.6885Z" fill="url(#paint2_linear_362_22071)"/>
<path d="M41.6693 17.2881C41.6693 16.8278 42.9597 15.9978 42.4994 15.7211C42.039 15.4445 41.5787 13.2335 41.5787 13.2335C41.5787 13.2335 41.209 4.56851 41.5787 3.73849C41.9484 2.90847 42.5924 2.72484 42.5924 2.72484C42.1762 2.02458 41.7599 1.32188 41.3412 0.621631L40.8001 0.616734V0.604492C40.592 0.604492 40.3839 0.609389 40.1733 0.609389C39.9652 0.609389 39.7571 0.604492 39.5465 0.604492V0.616734C39.3678 0.616734 39.1866 0.619183 39.0054 0.621631C38.5892 1.32188 38.1729 2.02458 37.7542 2.72484C37.7542 2.72484 38.4006 2.90847 38.7679 3.73849C39.1376 4.56851 38.7679 13.2335 38.7679 13.2335C38.7679 13.2335 38.3076 15.4469 37.8473 15.7211C37.387 15.9978 38.6773 16.8278 38.6773 17.2881V20.6058H38.6553V30.6468H41.6963V20.6058H41.6669V17.2881H41.6693Z" fill="url(#paint3_linear_362_22071)"/>
<path d="M43.2246 35.3359C42.8133 34.3761 42.473 34.3957 42.0934 33.578C41.8706 33.0981 41.6478 32.3562 41.7384 31.2764C41.2512 31.2764 40.7639 31.274 40.2791 31.2715C39.7552 31.2666 39.2288 31.2617 38.7048 31.2568C38.7954 32.3366 38.5701 33.0809 38.3498 33.5584C37.9702 34.3761 37.6299 34.3566 37.2186 35.3163C36.9394 35.9676 36.4865 38.0561 36.653 37.3681C37.8184 37.3608 38.9839 37.3534 40.1494 37.3461C41.3638 37.3608 42.5782 37.373 43.7927 37.3877C43.9592 38.0782 43.5062 35.9872 43.2271 35.3359H43.2246Z" fill="url(#paint4_linear_362_22071)"/>
<path d="M36.8063 38.1562C36.8063 38.1562 35.6457 39.8555 35.5625 42.0909C35.4792 44.3288 36.0179 44.1623 35.3152 44.9066C34.61 45.6534 33.2438 45.9839 32.4995 45.7342C31.7527 45.4844 31.6719 45.4452 31.6719 45.4452C31.6719 45.4452 32.377 46.3144 33.7433 46.5642C35.418 46.8678 38.246 47.6439 39.4996 46.2753C39.862 45.8786 39.813 45.6264 40.359 45.1025C41.069 44.4242 41.5783 44.4438 42.2957 43.9958C43.2016 43.4302 43.9754 42.4116 44.2226 41.2633C44.5287 39.8457 43.9411 38.6655 43.7134 38.2591" fill="url(#paint5_linear_362_22071)"/>
<path d="M41.476 29.6504H38.8292C38.533 29.6504 38.293 29.8905 38.293 30.1866C38.293 30.4827 38.533 30.7228 38.8292 30.7228H41.476C41.7721 30.7228 42.0122 30.4827 42.0122 30.1866C42.0122 29.8905 41.7721 29.6504 41.476 29.6504Z" fill="url(#paint6_linear_362_22071)"/>
<path d="M36.8457 37.4512H43.6181C43.9142 37.4512 44.1543 37.2111 44.1543 36.915C44.1543 36.6188 43.9142 36.3788 43.6181 36.3788H36.8457C36.5495 36.3788 36.3095 36.6188 36.3095 36.915C36.3095 37.2111 36.5495 37.4512 36.8457 37.4512Z" fill="url(#paint7_linear_362_22071)"/>
<path d="M41.1009 0H39.1348C38.5749 0 38.1211 0.453828 38.1211 1.01365C38.1211 1.57348 38.5749 2.0273 39.1348 2.0273H41.1009C41.6607 2.0273 42.1145 1.57348 42.1145 1.01365C42.1145 0.453828 41.6607 0 41.1009 0Z" fill="url(#paint8_linear_362_22071)"/>
<defs>
<linearGradient id="paint0_linear_362_22071" x1="26.499" y1="43.158" x2="5.88817" y2="4.70764" gradientUnits="userSpaceOnUse">
<stop stop-color="#2AFFD8"/>
<stop offset="1" stop-color="#60A0F7"/>
</linearGradient>
<linearGradient id="paint1_linear_362_22071" x1="18.4135" y1="7.39659" x2="14.1704" y2="-0.516776" gradientUnits="userSpaceOnUse">
<stop stop-color="#2AFFD8"/>
<stop offset="1" stop-color="#60A0F7"/>
</linearGradient>
<linearGradient id="paint2_linear_362_22071" x1="19.0088" y1="49.9477" x2="14.5404" y2="41.6083" gradientUnits="userSpaceOnUse">
<stop stop-color="#2AFFD8"/>
<stop offset="1" stop-color="#60A0F7"/>
</linearGradient>
<linearGradient id="paint3_linear_362_22071" x1="37.7518" y1="15.6256" x2="42.5997" y2="15.6256" gradientUnits="userSpaceOnUse">
<stop stop-color="#2AFFD8"/>
<stop offset="1" stop-color="#60A0F7"/>
</linearGradient>
<linearGradient id="paint4_linear_362_22071" x1="36.6138" y1="34.3908" x2="43.8245" y2="34.3908" gradientUnits="userSpaceOnUse">
<stop stop-color="#2AFFD8"/>
<stop offset="1" stop-color="#60A0F7"/>
</linearGradient>
<linearGradient id="paint5_linear_362_22071" x1="31.6694" y1="42.61" x2="44.3059" y2="42.61" gradientUnits="userSpaceOnUse">
<stop stop-color="#2AFFD8"/>
<stop offset="1" stop-color="#60A0F7"/>
</linearGradient>
<linearGradient id="paint6_linear_362_22071" x1="39.9212" y1="29.2219" x2="40.4598" y2="31.4794" gradientUnits="userSpaceOnUse">
<stop stop-color="#2AFFD8"/>
<stop offset="0.8" stop-color="#55B3F1"/>
<stop offset="1" stop-color="#60A0F7"/>
</linearGradient>
<linearGradient id="paint7_linear_362_22071" x1="40.2319" y1="38.433" x2="40.2319" y2="34.7922" gradientUnits="userSpaceOnUse">
<stop stop-color="#2AFFD8"/>
<stop offset="0.52" stop-color="#55B3F1"/>
<stop offset="1" stop-color="#60A0F7"/>
</linearGradient>
<linearGradient id="paint8_linear_362_22071" x1="40.8168" y1="2.31622" x2="39.4188" y2="-0.288924" gradientUnits="userSpaceOnUse">
<stop stop-color="#2AFFD8"/>
<stop offset="1" stop-color="#60A0F7"/>
</linearGradient>
</defs>
</svg>
