<svg width="48" height="48" viewBox="0 0 48 48" fill="none" xmlns="http://www.w3.org/2000/svg">
<mask id="mask0_362_22070" style="mask-type:luminance" maskUnits="userSpaceOnUse" x="26" y="22" width="4" height="11">
<path d="M26.8418 23.7114C27.1211 23.821 28.5324 25.5704 28.045 26.6107C27.7431 27.2553 28.1117 28.1283 28.0314 28.8475C28.0167 28.9809 27.907 29.2195 27.7499 29.5135C27.3111 30.3379 26.6767 30.8614 26.2617 31.1498C26.575 31.3499 26.9877 31.5772 27.5011 31.7729C27.9353 31.9391 28.3356 32.0431 28.6726 32.1098C29.238 30.4249 29.255 29.7804 29.1362 29.5237C29.1204 29.4886 28.996 29.2105 28.8354 28.8203C28.7981 28.731 28.7597 28.6258 28.7178 28.4969C28.6308 28.2255 28.5923 27.858 28.6975 27.2542C28.9553 25.7615 29.7039 26.0906 29.4449 24.5289C29.3827 24.1546 29.3499 23.5858 29.2991 22.8599" fill="white"/>
</mask>
<g mask="url(#mask0_362_22070)">
<path d="M28.6738 32.1097L29.7051 31.1123V32.1097H28.6738Z" fill="#2AFFD8"/>
<path d="M28.5605 32.1097L29.7015 31.0049V31.1123L28.6702 32.1097H28.5605Z" fill="#2AFFD8"/>
<path d="M28.4512 32.1102L29.703 30.8979V31.0054L28.562 32.1102H28.4512Z" fill="#2BFED8"/>
<path d="M28.3398 32.11L29.7025 30.7915V30.8978L28.4507 32.11H28.3398Z" fill="#2BFDD9"/>
<path d="M28.2305 32.11L29.7039 30.6841V30.7915L28.3413 32.11H28.2305Z" fill="#2CFCD9"/>
<path d="M28.1191 32.11L29.7034 30.5767V30.6841L28.23 32.11H28.1191Z" fill="#2CFBD9"/>
<path d="M28.0098 32.11L29.7037 30.4692V30.5767L28.1195 32.11H28.0098Z" fill="#2DFADA"/>
<path d="M27.8984 32.1099L29.7032 30.3628V30.4691L28.0093 32.1099H27.8984Z" fill="#2DF9DA"/>
<path d="M27.7871 32.1099L29.7027 30.2554V30.3628L27.8979 32.1099H27.7871Z" fill="#2EF8DA"/>
<path d="M27.6758 32.1099L29.7022 30.1479V30.2554L27.7866 32.1099H27.6758Z" fill="#2FF7DB"/>
<path d="M27.5645 32.1097L29.7017 30.0415V30.1478L27.6753 32.1097H27.5645Z" fill="#2FF6DB"/>
<path d="M27.457 32.1097L29.7039 29.9341V30.0415L27.5667 32.1097H27.457Z" fill="#30F5DB"/>
<path d="M27.3438 32.1098L29.7015 29.8267V29.9341L27.4546 32.1098H27.3438Z" fill="#30F4DC"/>
<path d="M27.2344 32.1096L29.7029 29.7202V29.8265L27.3452 32.1096H27.2344Z" fill="#31F3DC"/>
<path d="M27.123 32.1096L29.7024 29.6128V29.7202L27.2339 32.1096H27.123Z" fill="#31F2DC"/>
<path d="M27.0137 32.1096L29.7027 29.5054V29.6128L27.1234 32.1096H27.0137Z" fill="#32F1DD"/>
<path d="M26.9023 32.1099L29.7022 29.3994V29.5057L27.0132 32.1099H26.9023Z" fill="#33F0DD"/>
<path d="M26.793 32.11L29.7037 29.292V29.3994L26.9038 32.11H26.793Z" fill="#33EFDD"/>
<path d="M26.6816 32.11L29.7032 29.1846V29.292L26.7925 32.11H26.6816Z" fill="#34EEDE"/>
<path d="M26.6287 32.1093L26.6016 32.081L29.7034 29.0776V29.1839L26.6818 32.1093H26.6287Z" fill="#34EDDE"/>
<path d="M26.6012 32.0815L26.5469 32.0261L29.703 28.9707V29.0781L26.6012 32.0815Z" fill="#35ECDE"/>
<path d="M26.5473 32.0261L26.4941 31.9707L29.7034 28.8633V28.9707L26.5473 32.0261Z" fill="#35EBDF"/>
<path d="M26.4946 31.9707L26.4414 31.9153L29.7038 28.7559V28.8633L26.4946 31.9707Z" fill="#36EADF"/>
<path d="M26.441 31.9152L26.3867 31.8609L29.7034 28.6494V28.7557L26.441 31.9152Z" fill="#37E9DF"/>
<path d="M26.3852 31.8614L26.332 31.806L29.7018 28.5425V28.6499L26.3852 31.8614Z" fill="#37E8E0"/>
<path d="M26.3344 31.806L26.2812 31.7506L29.7042 28.4351V28.5425L26.3344 31.806Z" fill="#38E7E0"/>
<path d="M26.2809 31.7499L26.2617 31.7307V31.6606L29.7039 28.3281V28.4344L26.2809 31.7499Z" fill="#38E6E0"/>
<path d="M26.2617 31.5537L29.7039 28.2212V28.3286L26.2617 31.6611V31.5537Z" fill="#39E5E1"/>
<path d="M26.2617 31.4474L29.7039 28.1138V28.2212L26.2617 31.5537V31.4474Z" fill="#3AE4E1"/>
<path d="M26.2617 31.3398L29.7039 28.0073V28.1136L26.2617 31.4472V31.3398Z" fill="#3AE3E1"/>
<path d="M26.2617 31.2324L29.7039 27.8999V28.0073L26.2617 31.3398V31.2324Z" fill="#3BE2E2"/>
<path d="M26.2617 31.1261L29.7039 27.7925V27.8999L26.2617 31.2324V31.1261Z" fill="#3BE1E2"/>
<path d="M26.2617 31.0185L29.7039 27.686V27.7923L26.2617 31.1259V31.0185Z" fill="#3CE0E2"/>
<path d="M26.2617 30.9111L29.7039 27.5786V27.686L26.2617 31.0185V30.9111Z" fill="#3CDFE3"/>
<path d="M26.2617 30.8053L29.7039 27.4717V27.5791L26.2617 30.9116V30.8053Z" fill="#3DDEE3"/>
<path d="M26.2617 30.6974L29.7039 27.3638V27.4712L26.2617 30.8048V30.6974Z" fill="#3EDDE3"/>
<path d="M26.2617 30.5898L29.7039 27.2573V27.3636L26.2617 30.6972V30.5898Z" fill="#3EDCE4"/>
<path d="M26.2617 30.4835L29.7039 27.1499V27.2573L26.2617 30.5898V30.4835Z" fill="#3FDBE4"/>
<path d="M26.2617 30.3766L29.7039 27.043V27.1504L26.2617 30.484V30.3766Z" fill="#3FDAE4"/>
<path d="M26.2617 30.269L29.7039 26.9365V27.0428L26.2617 30.3764V30.269Z" fill="#40D9E5"/>
<path d="M26.2617 30.1611L29.7039 26.8286V26.936L26.2617 30.2685V30.1611Z" fill="#40D8E5"/>
<path d="M26.2617 30.0553L29.7039 26.7217V26.8291L26.2617 30.1616V30.0553Z" fill="#41D7E5"/>
<path d="M26.2617 29.9477L29.7039 26.6152V26.7215L26.2617 30.0551V29.9477Z" fill="#42D6E6"/>
<path d="M26.2617 29.8403L29.7039 26.5078V26.6152L26.2617 29.9477V29.8403Z" fill="#42D5E6"/>
<path d="M26.2617 29.734L29.7039 26.4004V26.5078L26.2617 29.8403V29.734Z" fill="#43D4E6"/>
<path d="M26.2617 29.6264L29.7039 26.2939V26.4002L26.2617 29.7339V29.6264Z" fill="#43D3E7"/>
<path d="M26.2617 29.5195L29.7039 26.187V26.2944L26.2617 29.6269V29.5195Z" fill="#44D2E7"/>
<path d="M26.2617 29.4132L29.7039 26.0796V26.187L26.2617 29.5195V29.4132Z" fill="#44D1E7"/>
<path d="M26.2617 29.3051L29.7039 25.9727V26.079L26.2617 29.4126V29.3051Z" fill="#45D0E8"/>
<path d="M26.2617 29.1982L29.7039 25.8657V25.9731L26.2617 29.3056V29.1982Z" fill="#46CEE8"/>
<path d="M26.2617 29.0919L29.7039 25.7583V25.8657L26.2617 29.1982V29.0919Z" fill="#46CDE8"/>
<path d="M26.2617 28.9845L29.7039 25.6509V25.7583L26.2617 29.0919V28.9845Z" fill="#47CCE8"/>
<path d="M26.2617 28.8769L29.7039 25.5444V25.6507L26.2617 28.9843V28.8769Z" fill="#47CBE9"/>
<path d="M26.2617 28.7706L29.7039 25.437V25.5444L26.2617 28.8769V28.7706Z" fill="#48CAE9"/>
<path d="M26.2617 28.6632L29.7039 25.3296V25.437L26.2617 28.7706V28.6632Z" fill="#48C9E9"/>
<path d="M26.2617 28.5556L29.7039 25.2231V25.3294L26.2617 28.663V28.5556Z" fill="#49C8EA"/>
<path d="M26.2617 28.4487L29.7039 25.1162V25.2236L26.2617 28.5561V28.4487Z" fill="#4AC7EA"/>
<path d="M26.2617 28.3419L29.7039 25.0083V25.1157L26.2617 28.4482V28.3419Z" fill="#4AC6EA"/>
<path d="M26.2617 28.2343L29.7039 24.9019V25.0082L26.2617 28.3418V28.2343Z" fill="#4BC5EB"/>
<path d="M26.2617 28.1269L29.7039 24.7944V24.9019L26.2617 28.2343V28.1269Z" fill="#4BC4EB"/>
<path d="M26.2617 28.0211L29.7039 24.6875V24.7949L26.2617 28.1274V28.0211Z" fill="#4CC3EB"/>
<path d="M26.2617 27.913L29.7039 24.5806V24.6869L26.2617 28.0205V27.913Z" fill="#4CC2EC"/>
<path d="M26.2617 27.8056L29.7039 24.4731V24.5806L26.2617 27.913V27.8056Z" fill="#4DC1EC"/>
<path d="M26.2617 27.6998L29.7039 24.3662V24.4736L26.2617 27.8061V27.6998Z" fill="#4EC0EC"/>
<path d="M26.2617 27.5922L29.7039 24.2598V24.3661L26.2617 27.6997V27.5922Z" fill="#4EBFED"/>
<path d="M26.2617 27.4848L29.7039 24.1523V24.2598L26.2617 27.5922V27.4848Z" fill="#4FBEED"/>
<path d="M26.2617 27.3785L29.7039 24.0449V24.1523L26.2617 27.4848V27.3785Z" fill="#4FBDED"/>
<path d="M26.2617 27.2711L29.7039 23.9375V24.0449L26.2617 27.3785V27.2711Z" fill="#50BCEE"/>
<path d="M26.2617 27.164L29.7039 23.8315V23.9378L26.2617 27.2714V27.164Z" fill="#50BBEE"/>
<path d="M26.2617 27.0572L29.7039 23.7236V23.8311L26.2617 27.1635V27.0572Z" fill="#51BAEE"/>
<path d="M26.2617 26.9498L29.7039 23.6162V23.7236L26.2617 27.0572V26.9498Z" fill="#52B9EF"/>
<path d="M26.2617 26.8427L29.7039 23.5103V23.6165L26.2617 26.9502V26.8427Z" fill="#52B8EF"/>
<path d="M26.2617 26.7353L29.7039 23.4028V23.5103L26.2617 26.8427V26.7353Z" fill="#53B7EF"/>
<path d="M26.2617 26.629L29.7039 23.2954V23.4028L26.2617 26.7353V26.629Z" fill="#53B6F0"/>
<path d="M26.2617 26.5214L29.7039 23.189V23.2953L26.2617 26.6289V26.5214Z" fill="#54B5F0"/>
<path d="M26.2617 26.414L29.7039 23.0815V23.189L26.2617 26.5214V26.414Z" fill="#55B4F0"/>
<path d="M26.2617 26.3077L29.7039 22.9741V23.0815L26.2617 26.414V26.3077Z" fill="#55B3F1"/>
<path d="M26.2617 26.2002L29.7039 22.8677V22.974L26.2617 26.3076V26.2002Z" fill="#56B2F1"/>
<path d="M26.2617 26.093L29.6021 22.8589H29.7039V22.8679L26.2617 26.2004V26.093Z" fill="#56B1F1"/>
<path d="M26.2617 25.9867L29.4913 22.8589H29.6021L26.2617 26.093V25.9867Z" fill="#57B0F2"/>
<path d="M26.2617 25.8793L29.3805 22.8589H29.4913L26.2617 25.9867V25.8793Z" fill="#57AFF2"/>
<path d="M26.2617 25.7718L29.2697 22.8589H29.3805L26.2617 25.8793V25.7718Z" fill="#58AEF2"/>
<path d="M26.2617 25.6655L29.16 22.8589H29.2697L26.2617 25.7718V25.6655Z" fill="#59ADF3"/>
<path d="M26.2617 25.5581L29.0492 22.8589H29.16L26.2617 25.6655V25.5581Z" fill="#59ACF3"/>
<path d="M26.2617 25.4507L28.9383 22.8589H29.0492L26.2617 25.5581V25.4507Z" fill="#5AABF3"/>
<path d="M26.2617 25.3433L28.8275 22.8589H28.9383L26.2617 25.4507V25.3433Z" fill="#5AAAF4"/>
<path d="M26.2617 25.237L28.7178 22.8589H28.8275L26.2617 25.3433V25.237Z" fill="#5BA9F4"/>
<path d="M26.2617 25.1295L28.607 22.8589H28.7178L26.2617 25.237V25.1295Z" fill="#5BA8F4"/>
<path d="M26.2617 25.0221L28.4962 22.8589H28.607L26.2617 25.1295V25.0221Z" fill="#5CA7F5"/>
<path d="M26.2617 24.9158L28.3854 22.8589H28.4962L26.2617 25.0221V24.9158Z" fill="#5DA6F5"/>
<path d="M26.2617 24.8084L28.2746 22.8589H28.3854L26.2617 24.9158V24.8084Z" fill="#5DA5F5"/>
<path d="M26.2617 24.701L28.1649 22.8589H28.2746L26.2617 24.8084V24.701Z" fill="#5EA4F6"/>
<path d="M26.2617 24.5947L28.054 22.8589H28.1649L26.2617 24.701V24.5947Z" fill="#5EA3F6"/>
<path d="M26.2617 24.4872L27.9432 22.8589H28.054L26.2617 24.5947V24.4872Z" fill="#5FA2F6"/>
<path d="M26.2617 24.3798L27.8324 22.8589H27.9432L26.2617 24.4872V24.3798Z" fill="#5FA1F7"/>
<path d="M26.2617 24.2735L27.7216 22.8589H27.8324L26.2617 24.3798V24.2735Z" fill="#60A0F7"/>
<path d="M27.7216 22.8589L26.2617 24.2735V22.8589H27.7216Z" fill="#60A0F7"/>
</g>
<mask id="mask1_362_22070" style="mask-type:luminance" maskUnits="userSpaceOnUse" x="17" y="24" width="16" height="23">
<path d="M17.7637 24.7611C18.0283 24.916 19.8794 30.1833 22.7008 31.4995C25.5221 32.8158 28.6963 35.1396 29.2255 37.7732C29.7547 40.4069 30.7238 40.5618 29.8429 42.6526C28.9609 44.7435 28.2564 46.6025 28.2564 46.6025L31.4306 46.8344C31.4306 46.8344 32.9289 45.2852 32.8418 42.8064C32.7536 40.3277 32.8418 39.3982 31.7834 38.1588C30.725 36.9195 31.4306 37.3073 30.0205 34.8286C28.6092 32.3499 24.2895 31.6533 23.4075 30.7238C22.5255 29.7943 21.6446 26.6959 22.1727 25.7664C22.7019 24.8368 23.0547 24.3721 23.0547 24.3721" fill="white"/>
</mask>
<g mask="url(#mask1_362_22070)">
<path d="M31.4297 46.8366L32.928 46.0337V46.8366H31.4297Z" fill="#2AFFD8"/>
<path d="M30.8535 46.8363L32.9297 45.7236V46.0335L31.4314 46.8363H30.8535Z" fill="#2AFFD8"/>
<path d="M30.2754 46.8361L32.9294 45.4136V45.7234L30.8532 46.8361H30.2754Z" fill="#2BFED8"/>
<path d="M29.6973 46.8362L32.928 45.105V45.4137L30.274 46.8362H29.6973Z" fill="#2BFDD9"/>
<path d="M29.1211 46.836L32.9296 44.7949V45.1048L29.6989 46.836H29.1211Z" fill="#2CFCD9"/>
<path d="M28.543 46.8363L32.9282 44.4854V44.7952L29.1197 46.8363H28.543Z" fill="#2CFBD9"/>
<path d="M27.9668 46.8364L32.9299 44.1768V44.4855L28.5446 46.8364H27.9668Z" fill="#2DFADA"/>
<path d="M27.9246 46.8362L27.8047 46.6146L32.9306 43.8667V44.1765L27.9675 46.8362H27.9246Z" fill="#2DF9DA"/>
<path d="M27.8027 46.6148L27.6738 46.374L32.9287 43.5571V43.867L27.8027 46.6148Z" fill="#2EF8DA"/>
<path d="M27.6738 46.3741L27.5449 46.1332L32.9287 43.2485V43.5572L27.6738 46.3741Z" fill="#2FF7DB"/>
<path d="M27.5449 46.133L27.416 45.8933L32.9287 42.9385V43.2483L27.5449 46.133Z" fill="#2FF6DB"/>
<path d="M27.4168 45.8935L27.2891 45.6527L32.9295 42.6289V42.9387L27.4168 45.8935Z" fill="#30F5DB"/>
<path d="M27.2891 45.6523L27.1602 45.4114L32.9295 42.3198V42.6285L27.2891 45.6523Z" fill="#30F4DC"/>
<path d="M27.1602 45.4112L27.0312 45.1715L32.9295 42.0098V42.3196L27.1602 45.4112Z" fill="#31F3DC"/>
<path d="M27.0313 45.1718L26.9023 44.9309L32.9295 41.7002V42.01L27.0313 45.1718Z" fill="#31F2DC"/>
<path d="M26.9023 44.9307L26.7734 44.691L32.9295 41.3901V41.7L26.9023 44.9307Z" fill="#32F1DD"/>
<path d="M26.7715 44.6911L26.6426 44.4502L32.9276 41.0815V41.3903L26.7715 44.6911Z" fill="#33F0DD"/>
<path d="M26.6445 44.4505L26.5156 44.2096L32.9296 40.772V41.0818L26.6445 44.4505Z" fill="#33EFDD"/>
<path d="M26.5156 44.2094L26.3867 43.9697L32.9296 40.4619V40.7718L26.5156 44.2094Z" fill="#34EEDE"/>
<path d="M26.3867 43.9698L26.2578 43.7289L32.9296 40.1533V40.462L26.3867 43.9698Z" fill="#34EDDE"/>
<path d="M26.2559 43.7287L26.127 43.489L32.9276 39.8433V40.1531L26.2559 43.7287Z" fill="#35ECDE"/>
<path d="M26.1289 43.4892L26 43.2484L32.9296 39.5337V39.8435L26.1289 43.4892Z" fill="#35EBDF"/>
<path d="M26 43.2485L25.8711 43.0076L32.9296 39.2251V39.5338L26 43.2485Z" fill="#36EADF"/>
<path d="M25.8711 43.0074L25.7422 42.7677L32.9296 38.915V39.2249L25.8711 43.0074Z" fill="#37E9DF"/>
<path d="M25.7422 42.7672L25.6133 42.5263L32.8855 38.6284L32.9296 38.7098V38.9145L25.7422 42.7672Z" fill="#37E8E0"/>
<path d="M32.7552 38.3911L25.4824 42.2891L25.6112 42.5293L32.8839 38.6313L32.7552 38.3911Z" fill="#38E7E0"/>
<path d="M32.6263 38.1489L25.3535 42.0469L25.4823 42.2871L32.755 38.3891L32.6263 38.1489Z" fill="#38E6E0"/>
<path d="M32.4974 37.9096L25.2246 41.8076L25.3533 42.0478L32.6261 38.1498L32.4974 37.9096Z" fill="#39E5E1"/>
<path d="M32.3684 37.6684L25.0957 41.5664L25.2244 41.8066L32.4972 37.9086L32.3684 37.6684Z" fill="#3AE4E1"/>
<path d="M32.2395 37.4277L24.9668 41.3257L25.0955 41.5659L32.3683 37.6679L32.2395 37.4277Z" fill="#3AE3E1"/>
<path d="M32.1106 37.1875L24.8379 41.0854L24.9666 41.3256L32.2394 37.4277L32.1106 37.1875Z" fill="#3BE2E2"/>
<path d="M31.9837 36.9468L24.7109 40.8447L24.8397 41.0849L32.1124 37.187L31.9837 36.9468Z" fill="#3BE1E2"/>
<path d="M31.8528 36.707L24.5801 40.605L24.7088 40.8452L31.9816 36.9472L31.8528 36.707Z" fill="#3CE0E2"/>
<path d="M31.7259 36.4663L24.4531 40.3643L24.5819 40.6045L31.8546 36.7065L31.7259 36.4663Z" fill="#3CDFE3"/>
<path d="M31.595 36.2256L24.3223 40.1235L24.451 40.3637L31.7237 36.4658L31.595 36.2256Z" fill="#3DDEE3"/>
<path d="M31.4681 35.9858L24.1953 39.8838L24.3241 40.124L31.5968 36.226L31.4681 35.9858Z" fill="#3EDDE3"/>
<path d="M31.3372 35.7451L24.0645 39.6431L24.1932 39.8833L31.4659 35.9853L31.3372 35.7451Z" fill="#3EDCE4"/>
<path d="M31.2102 35.5044L23.9375 39.4023L24.0662 39.6425L31.339 35.7446L31.2102 35.5044Z" fill="#3FDBE4"/>
<path d="M31.0813 35.2646L23.8086 39.1626L23.9373 39.4028L31.2101 35.5048L31.0813 35.2646Z" fill="#3FDAE4"/>
<path d="M30.9544 35.0239L23.6816 38.9219L23.8104 39.1621L31.0831 35.2641L30.9544 35.0239Z" fill="#40D9E5"/>
<path d="M30.8216 34.7842L23.5488 38.6821L23.6776 38.9223L30.9503 35.0244L30.8216 34.7842Z" fill="#40D8E5"/>
<path d="M30.6946 34.5434L23.4219 38.4414L23.5506 38.6816L30.8234 34.7836L30.6946 34.5434Z" fill="#41D7E5"/>
<path d="M30.5638 34.3027L23.291 38.2007L23.4198 38.4409L30.6925 34.5429L30.5638 34.3027Z" fill="#42D6E6"/>
<path d="M30.4368 34.063L23.1641 37.9609L23.2928 38.2011L30.5655 34.3032L30.4368 34.063Z" fill="#42D5E6"/>
<path d="M30.3059 33.8213L23.0332 37.7192L23.1619 37.9594L30.4347 34.0615L30.3059 33.8213Z" fill="#43D4E6"/>
<path d="M30.179 33.5815L22.9062 37.4795L23.035 37.7197L30.3077 33.8217L30.179 33.5815Z" fill="#43D3E7"/>
<path d="M30.0501 33.3408L22.7773 37.2388L22.9061 37.479L30.1788 33.581L30.0501 33.3408Z" fill="#44D2E7"/>
<path d="M29.9212 33.1006L22.6484 36.9985L22.7772 37.2387L30.0499 33.3408L29.9212 33.1006Z" fill="#44D1E7"/>
<path d="M29.7923 32.8603L22.5195 36.7583L22.6483 36.9985L29.921 33.1005L29.7923 32.8603Z" fill="#45D0E8"/>
<path d="M29.6634 32.6196L22.3906 36.5176L22.5194 36.7578L29.7921 32.8598L29.6634 32.6196Z" fill="#46CEE8"/>
<path d="M29.5345 32.3799L22.2617 36.2778L22.3905 36.518L29.6632 32.6201L29.5345 32.3799Z" fill="#46CDE8"/>
<path d="M29.4056 32.1391L22.1328 36.0371L22.2616 36.2773L29.5343 32.3793L29.4056 32.1391Z" fill="#47CCE8"/>
<path d="M29.2747 31.8984L22.002 35.7964L22.1307 36.0366L29.4034 32.1386L29.2747 31.8984Z" fill="#47CBE9"/>
<path d="M29.1477 31.6582L21.875 35.5562L22.0037 35.7963L29.2765 31.8984L29.1477 31.6582Z" fill="#48CAE9"/>
<path d="M29.0188 31.4175L21.7461 35.3154L21.8748 35.5556L29.1476 31.6577L29.0188 31.4175Z" fill="#48C9E9"/>
<path d="M28.8919 31.1777L21.6191 35.0757L21.7479 35.3159L29.0206 31.4179L28.8919 31.1777Z" fill="#49C8EA"/>
<path d="M28.761 30.937L21.4883 34.835L21.617 35.0752L28.8898 31.1772L28.761 30.937Z" fill="#4AC7EA"/>
<path d="M28.6341 30.6963L21.3613 34.5942L21.4901 34.8344L28.7628 30.9365L28.6341 30.6963Z" fill="#4AC6EA"/>
<path d="M28.5032 30.4565L21.2305 34.3545L21.3592 34.5947L28.632 30.6967L28.5032 30.4565Z" fill="#4BC5EB"/>
<path d="M28.3763 30.2158L21.1035 34.1138L21.2323 34.354L28.505 30.456L28.3763 30.2158Z" fill="#4BC4EB"/>
<path d="M28.2454 29.9761L20.9727 33.874L21.1014 34.1142L28.3741 30.2163L28.2454 29.9761Z" fill="#4CC3EB"/>
<path d="M28.1184 29.7339L20.8457 33.6318L20.9744 33.872L28.2472 29.9741L28.1184 29.7339Z" fill="#4CC2EC"/>
<path d="M27.9895 29.4931L20.7168 33.3911L20.8455 33.6313L28.1183 29.7333L27.9895 29.4931Z" fill="#4DC1EC"/>
<path d="M27.8606 29.2539L20.5879 33.1519L20.7166 33.3921L27.9894 29.4941L27.8606 29.2539Z" fill="#4EC0EC"/>
<path d="M27.7298 29.0127L20.457 32.9106L20.5858 33.1508L27.8585 29.2529L27.7298 29.0127Z" fill="#4EBFED"/>
<path d="M27.6028 28.7729L20.3301 32.6709L20.4588 32.9111L27.7316 29.0131L27.6028 28.7729Z" fill="#4FBEED"/>
<path d="M27.472 28.5322L20.1992 32.4302L20.328 32.6704L27.6007 28.7724L27.472 28.5322Z" fill="#4FBDED"/>
<path d="M27.3431 28.2915L20.0703 32.1895L20.1991 32.4297L27.4718 28.5317L27.3431 28.2915Z" fill="#50BCEE"/>
<path d="M27.2141 28.0517L19.9414 31.9497L20.0701 32.1899L27.3429 28.2919L27.2141 28.0517Z" fill="#50BBEE"/>
<path d="M27.0852 27.811L19.8125 31.709L19.9412 31.9492L27.214 28.0512L27.0852 27.811Z" fill="#51BAEE"/>
<path d="M26.9563 27.5713L19.6836 31.4692L19.8123 31.7094L27.0851 27.8115L26.9563 27.5713Z" fill="#52B9EF"/>
<path d="M26.8294 27.3305L19.5566 31.2285L19.6854 31.4687L26.9581 27.5707L26.8294 27.3305Z" fill="#52B8EF"/>
<path d="M26.6985 27.0898L19.4258 30.9878L19.5545 31.228L26.8273 27.33L26.6985 27.0898Z" fill="#53B7EF"/>
<path d="M26.5716 26.8501L19.2988 30.748L19.4276 30.9882L26.7003 27.0903L26.5716 26.8501Z" fill="#53B6F0"/>
<path d="M26.4407 26.6094L19.168 30.5073L19.2967 30.7475L26.5695 26.8496L26.4407 26.6094Z" fill="#54B5F0"/>
<path d="M26.3138 26.3696L19.041 30.2676L19.1698 30.5078L26.4425 26.6098L26.3138 26.3696Z" fill="#55B4F0"/>
<path d="M26.1849 26.1284L18.9121 30.0264L19.0408 30.2666L26.3136 26.3686L26.1849 26.1284Z" fill="#55B3F1"/>
<path d="M26.0559 25.8882L18.7832 29.7861L18.9119 30.0263L26.1847 26.1284L26.0559 25.8882Z" fill="#56B2F1"/>
<path d="M25.927 25.6479L18.6543 29.5459L18.783 29.7861L26.0558 25.8881L25.927 25.6479Z" fill="#56B1F1"/>
<path d="M25.7981 25.4067L18.5254 29.3047L18.6541 29.5449L25.9269 25.6469L25.7981 25.4067Z" fill="#57B0F2"/>
<path d="M25.6673 25.1665L18.3945 29.0645L18.5233 29.3047L25.796 25.4067L25.6673 25.1665Z" fill="#57AFF2"/>
<path d="M25.5403 24.9258L18.2676 28.8237L18.3963 29.0639L25.6691 25.166L25.5403 24.9258Z" fill="#58AEF2"/>
<path d="M25.4114 24.685L18.1387 28.583L18.2674 28.8232L25.5402 24.9252L25.4114 24.685Z" fill="#59ADF3"/>
<path d="M25.2845 24.4453L18.0117 28.3433L18.1405 28.5835L25.4132 24.6855L25.2845 24.4453Z" fill="#59ACF3"/>
<path d="M18.0098 28.3433L17.8809 28.1024L24.8376 24.373H25.2435L25.282 24.4443L18.0098 28.3433Z" fill="#5AABF3"/>
<path d="M17.8809 28.1024L17.752 27.8616L24.2597 24.373H24.8376L17.8809 28.1024Z" fill="#5AAAF4"/>
<path d="M17.752 27.8616L17.623 27.6218L23.683 24.373H24.2597L17.752 27.8616Z" fill="#5BA9F4"/>
<path d="M17.6224 27.6218L17.498 27.3912V27.3787L23.1046 24.373H23.6824L17.6224 27.6218Z" fill="#5BA8F4"/>
<path d="M17.498 27.0689L22.5279 24.373H23.1046L17.498 27.3787V27.0689Z" fill="#5CA7F5"/>
<path d="M17.498 26.759L21.95 24.373H22.5279L17.498 27.0689V26.759Z" fill="#5DA6F5"/>
<path d="M17.498 26.4503L21.3722 24.373H21.95L17.498 26.759V26.4503Z" fill="#5DA5F5"/>
<path d="M17.498 26.1405L20.7955 24.373H21.3722L17.498 26.4503V26.1405Z" fill="#5EA4F6"/>
<path d="M17.498 25.8307L20.2176 24.373H20.7955L17.498 26.1405V25.8307Z" fill="#5EA3F6"/>
<path d="M17.498 25.5219L19.6409 24.373H20.2176L17.498 25.8307V25.5219Z" fill="#5FA2F6"/>
<path d="M17.498 25.2121L19.0631 24.373H19.6409L17.498 25.5219V25.2121Z" fill="#5FA1F7"/>
<path d="M17.498 24.9023L18.4852 24.373H19.0631L17.498 25.2121V24.9023Z" fill="#60A0F7"/>
<path d="M18.4852 24.373L17.498 24.9023V24.373H18.4852Z" fill="#60A0F7"/>
</g>
<mask id="mask2_362_22070" style="mask-type:luminance" maskUnits="userSpaceOnUse" x="1" y="10" width="46" height="21">
<path d="M25.9378 25.6974C38.1224 21.1635 47.1324 15.1565 46.0621 12.2802C44.9919 9.40396 34.2467 10.7477 22.0622 15.2815C9.87756 19.8153 0.867603 25.8224 1.93785 28.6986C3.00809 31.5749 13.7533 30.2312 25.9378 25.6974Z" fill="white"/>
</mask>
<g mask="url(#mask2_362_22070)">
<path d="M30.4297 31.5754L47.1317 12.6299V31.5754H30.4297Z" fill="#2AFFD8"/>
<path d="M30.0898 31.5749L47.1322 12.2427V12.6294L30.4302 31.5749H30.0898Z" fill="#2AFFD8"/>
<path d="M29.748 31.5751L47.1319 11.855V12.2428L30.0896 31.5751H29.748Z" fill="#2BFED8"/>
<path d="M29.4082 31.5751L47.1324 11.4683V11.855L29.7486 31.5751H29.4082Z" fill="#2BFDD9"/>
<path d="M29.0645 31.5751L47.1302 11.0815V11.4683L29.406 31.5751H29.0645Z" fill="#2CFCD9"/>
<path d="M28.7246 31.575L47.1036 10.7275L47.1319 10.7524V11.0815L29.0661 31.575H28.7246Z" fill="#2CFBD9"/>
<path d="M28.3848 31.5747L46.9119 10.5576L47.1041 10.7272L28.7251 31.5747H28.3848Z" fill="#2DFADA"/>
<path d="M28.043 31.5748L46.7193 10.3892L46.9116 10.5576L28.3845 31.5748H28.043Z" fill="#2DF9DA"/>
<path d="M27.7012 31.575L46.5279 10.2197L46.719 10.3893L28.0427 31.575H27.7012Z" fill="#2EF8DA"/>
<path d="M27.3613 31.5751L46.3362 10.0503L46.5285 10.2199L27.7017 31.5751H27.3613Z" fill="#2FF7DB"/>
<path d="M27.0195 31.5752L46.1437 9.88184L46.3359 10.0503L27.361 31.5752H27.0195Z" fill="#2FF6DB"/>
<path d="M26.6777 31.5749L45.9512 9.71191L46.1434 9.88153L27.0192 31.5749H26.6777Z" fill="#30F5DB"/>
<path d="M26.3379 31.5746L45.7606 9.54199L45.9517 9.71161L26.6783 31.5746H26.3379Z" fill="#30F4DC"/>
<path d="M25.9961 31.5753L45.5409 9.40479H45.602L45.7603 9.54274L26.3376 31.5753H25.9961Z" fill="#31F3DC"/>
<path d="M25.6543 31.5753L45.1991 9.40479H45.5406L25.9958 31.5753H25.6543Z" fill="#31F2DC"/>
<path d="M25.3125 31.5753L44.8573 9.40479H45.1977L25.6529 31.5753H25.3125Z" fill="#32F1DD"/>
<path d="M24.9727 31.5753L44.5175 9.40479H44.859L25.3142 31.5753H24.9727Z" fill="#33F0DD"/>
<path d="M24.6309 31.5753L44.1757 9.40479H44.5172L24.9724 31.5753H24.6309Z" fill="#33EFDD"/>
<path d="M24.291 31.5753L43.8358 9.40479H44.1762L24.6314 31.5753H24.291Z" fill="#34EEDE"/>
<path d="M23.9492 31.5753L43.4941 9.40479H43.8356L24.2907 31.5753H23.9492Z" fill="#34EDDE"/>
<path d="M23.6074 31.5753L43.1523 9.40479H43.4938L23.9489 31.5753H23.6074Z" fill="#35ECDE"/>
<path d="M23.2676 31.5753L42.8124 9.40479H43.1528L23.608 31.5753H23.2676Z" fill="#35EBDF"/>
<path d="M22.9258 31.5753L42.4706 9.40479H42.8121L23.2673 31.5753H22.9258Z" fill="#36EADF"/>
<path d="M22.584 31.5753L42.1288 9.40479H42.4703L22.9255 31.5753H22.584Z" fill="#37E9DF"/>
<path d="M22.2422 31.5753L41.787 9.40479H42.1274L22.5826 31.5753H22.2422Z" fill="#37E8E0"/>
<path d="M21.9023 31.5753L41.4472 9.40479H41.7887L22.2438 31.5753H21.9023Z" fill="#38E7E0"/>
<path d="M21.5605 31.5753L41.1054 9.40479H41.4469L21.9021 31.5753H21.5605Z" fill="#38E6E0"/>
<path d="M21.2207 31.5753L40.7655 9.40479H41.1059L21.5611 31.5753H21.2207Z" fill="#39E5E1"/>
<path d="M20.8789 31.5753L40.4237 9.40479H40.7652L21.2204 31.5753H20.8789Z" fill="#3AE4E1"/>
<path d="M20.5371 31.5753L40.0819 9.40479H40.4234L20.8786 31.5753H20.5371Z" fill="#3AE3E1"/>
<path d="M20.1973 31.5753L39.7421 9.40479H40.0825L20.5376 31.5753H20.1973Z" fill="#3BE2E2"/>
<path d="M19.8555 31.5753L39.4003 9.40479H39.7418L20.197 31.5753H19.8555Z" fill="#3BE1E2"/>
<path d="M19.5137 31.5753L39.0596 9.40479H39.4L19.8552 31.5753H19.5137Z" fill="#3CE0E2"/>
<path d="M19.1738 31.5753L38.7187 9.40479H39.0602L19.5142 31.5753H19.1738Z" fill="#3CDFE3"/>
<path d="M18.832 31.5753L38.3769 9.40479H38.7184L19.1735 31.5753H18.832Z" fill="#3DDEE3"/>
<path d="M18.4902 31.5753L38.0362 9.40479H38.3766L18.8317 31.5753H18.4902Z" fill="#3EDDE3"/>
<path d="M18.1523 31.5753L37.6972 9.40479H38.0387L18.4927 31.5753H18.1523Z" fill="#3EDCE4"/>
<path d="M17.8086 31.5753L37.3534 9.40479H37.6949L18.1501 31.5753H17.8086Z" fill="#3FDBE4"/>
<path d="M17.4688 31.5753L37.0147 9.40479H37.3551L17.8103 31.5753H17.4688Z" fill="#3FDAE4"/>
<path d="M17.127 31.5753L36.6718 9.40479H37.0133L17.4673 31.5753H17.127Z" fill="#40D9E5"/>
<path d="M16.7852 31.5753L36.33 9.40479H36.6715L17.1267 31.5753H16.7852Z" fill="#40D8E5"/>
<path d="M16.4434 31.5753L35.9893 9.40479H36.3297L16.7849 31.5753H16.4434Z" fill="#41D7E5"/>
<path d="M16.1035 31.5753L35.6483 9.40479H35.9899L16.4439 31.5753H16.1035Z" fill="#42D6E6"/>
<path d="M15.7617 31.5753L35.3066 9.40479H35.6481L16.1032 31.5753H15.7617Z" fill="#42D5E6"/>
<path d="M15.4199 31.5753L34.9659 9.40479H35.3063L15.7614 31.5753H15.4199Z" fill="#43D4E6"/>
<path d="M15.082 31.5753L34.6269 9.40479H34.9684L15.4224 31.5753H15.082Z" fill="#43D3E7"/>
<path d="M14.7383 31.5753L34.2831 9.40479H34.6246L15.0798 31.5753H14.7383Z" fill="#44D2E7"/>
<path d="M14.3984 31.5753L33.9444 9.40479H34.2848L14.7399 31.5753H14.3984Z" fill="#44D1E7"/>
<path d="M14.0566 31.5753L33.6015 9.40479H33.943L14.397 31.5753H14.0566Z" fill="#45D0E8"/>
<path d="M13.7148 31.5753L33.2597 9.40479H33.6012L14.0563 31.5753H13.7148Z" fill="#46CEE8"/>
<path d="M13.373 31.5753L32.919 9.40479H33.2594L13.7146 31.5753H13.373Z" fill="#46CDE8"/>
<path d="M13.0332 31.5753L32.578 9.40479H32.9195L13.3736 31.5753H13.0332Z" fill="#47CCE8"/>
<path d="M12.6914 31.5753L32.2362 9.40479H32.5777L13.0329 31.5753H12.6914Z" fill="#47CBE9"/>
<path d="M12.3496 31.5753L31.8956 9.40479H32.2359L12.6911 31.5753H12.3496Z" fill="#48CAE9"/>
<path d="M12.0117 31.5753L31.5566 9.40479H31.8981L12.3521 31.5753H12.0117Z" fill="#48C9E9"/>
<path d="M11.668 31.5753L31.2128 9.40479H31.5543L12.0095 31.5753H11.668Z" fill="#49C8EA"/>
<path d="M11.3281 31.5753L30.8741 9.40479H31.2145L11.6696 31.5753H11.3281Z" fill="#4AC7EA"/>
<path d="M10.9863 31.5753L30.5312 9.40479H30.8727L11.3267 31.5753H10.9863Z" fill="#4AC6EA"/>
<path d="M10.6465 31.5753L30.1913 9.40479H30.5328L10.988 31.5753H10.6465Z" fill="#4BC5EB"/>
<path d="M10.3027 31.5753L29.8487 9.40479H30.1891L10.6442 31.5753H10.3027Z" fill="#4BC4EB"/>
<path d="M9.96289 31.5753L29.5077 9.40479H29.8492L10.3033 31.5753H9.96289Z" fill="#4CC3EB"/>
<path d="M9.62109 31.5753L29.1659 9.40479H29.5074L9.9626 31.5753H9.62109Z" fill="#4CC2EC"/>
<path d="M9.2793 31.5753L28.8253 9.40479H29.1656L9.6208 31.5753H9.2793Z" fill="#4DC1EC"/>
<path d="M8.94141 31.5753L28.4862 9.40479H28.8277L9.28178 31.5753H8.94141Z" fill="#4EC0EC"/>
<path d="M8.59766 31.5753L28.1425 9.40479H28.484L8.93916 31.5753H8.59766Z" fill="#4EBFED"/>
<path d="M8.25781 31.5753L27.8038 9.40479H28.1442L8.59932 31.5753H8.25781Z" fill="#4FBEED"/>
<path d="M7.91602 31.5753L27.4608 9.40479H27.8024L8.25639 31.5753H7.91602Z" fill="#4FBDED"/>
<path d="M7.57617 31.5753L27.121 9.40479H27.4625L7.91768 31.5753H7.57617Z" fill="#50BCEE"/>
<path d="M7.23242 31.5753L26.7784 9.40479H27.1188L7.57393 31.5753H7.23242Z" fill="#50BBEE"/>
<path d="M6.89258 31.5753L26.4374 9.40479H26.7789L7.23295 31.5753H6.89258Z" fill="#51BAEE"/>
<path d="M6.55078 31.5753L26.0956 9.40479H26.4371L6.89228 31.5753H6.55078Z" fill="#52B9EF"/>
<path d="M6.20898 31.5753L25.7549 9.40479H26.0953L6.55049 31.5753H6.20898Z" fill="#52B8EF"/>
<path d="M5.87109 31.5753L25.4159 9.40479H25.7574L6.21147 31.5753H5.87109Z" fill="#53B7EF"/>
<path d="M5.52734 31.5753L25.0722 9.40479H25.4137L5.86885 31.5753H5.52734Z" fill="#53B6F0"/>
<path d="M5.18945 31.5753L24.7343 9.40479H25.0747L5.52983 31.5753H5.18945Z" fill="#54B5F0"/>
<path d="M4.8457 31.5753L24.3905 9.40479H24.732L5.18721 31.5753H4.8457Z" fill="#55B4F0"/>
<path d="M4.50586 31.5753L24.0507 9.40479H24.3922L4.84736 31.5753H4.50586Z" fill="#55B3F1"/>
<path d="M4.16406 31.5753L23.7089 9.40479H24.0493L4.50443 31.5753H4.16406Z" fill="#56B2F1"/>
<path d="M3.82422 31.5753L23.3691 9.40479H23.7106L4.16572 31.5753H3.82422Z" fill="#56B1F1"/>
<path d="M3.48047 31.5753L23.0253 9.40479H23.3668L3.82197 31.5753H3.48047Z" fill="#57B0F2"/>
<path d="M3.14062 31.5753L22.6855 9.40479H23.0258L3.481 31.5753H3.14062Z" fill="#57AFF2"/>
<path d="M2.80078 31.5753L22.3456 9.40479H22.6871L3.14228 31.5753H2.80078Z" fill="#58AEF2"/>
<path d="M2.45703 31.5753L22.0019 9.40479H22.3434L2.79853 31.5753H2.45703Z" fill="#59ADF3"/>
<path d="M2.39546 31.5753L2.23828 31.4362L21.661 9.40479H22.0014L2.45653 31.5753H2.39546Z" fill="#59ACF3"/>
<path d="M2.24107 31.4362L2.04883 31.2666L21.3223 9.40479H21.6638L2.24107 31.4362Z" fill="#5AABF3"/>
<path d="M2.04771 31.2666L1.85547 31.0981L20.9796 9.40479H21.3211L2.04771 31.2666Z" fill="#5AAAF4"/>
<path d="M1.85517 31.0981L1.66406 30.9285L20.639 9.40479H20.9793L1.85517 31.0981Z" fill="#5BA9F4"/>
<path d="M1.66489 30.9285L1.47266 30.7589L20.2983 9.40479H20.6398L1.66489 30.9285Z" fill="#5BA8F4"/>
<path d="M1.46958 30.7589L1.27734 30.5904L19.9537 9.40479H20.2952L1.46958 30.7589Z" fill="#5CA7F5"/>
<path d="M1.28208 30.5904L1.08984 30.4208L19.6181 9.40479H19.9585L1.28208 30.5904Z" fill="#5DA6F5"/>
<path d="M1.08759 30.4208L0.896484 30.2512L19.2743 9.40479H19.6158L1.08759 30.4208Z" fill="#5DA5F5"/>
<path d="M0.896588 30.2512L0.867188 30.2263V29.8972L18.9329 9.40479H19.2744L0.896588 30.2512Z" fill="#5EA4F6"/>
<path d="M0.867188 29.5105L18.5926 9.40479H18.9329L0.867188 29.8972V29.5105Z" fill="#5EA3F6"/>
<path d="M0.867188 29.1237L18.2511 9.40479H18.5926L0.867188 29.5105V29.1237Z" fill="#5FA2F6"/>
<path d="M0.867188 28.737L17.9095 9.40479H18.2511L0.867188 29.1237V28.737Z" fill="#5FA1F7"/>
<path d="M0.867188 28.3491L17.5692 9.40479H17.9095L0.867188 28.737V28.3491Z" fill="#60A0F7"/>
<path d="M17.5692 9.40479L0.867188 28.3491V9.40479H17.5692Z" fill="#60A0F7"/>
</g>
<path d="M32.1313 15.744C29.371 11.6494 26.6118 7.55474 23.8515 3.4601C23.8402 3.43974 23.8255 3.41939 23.8108 3.40016C23.8074 3.39564 23.8052 3.39112 23.8018 3.38659C23.2126 2.65157 20.4546 2.93088 17.3924 4.07073C14.1447 5.27843 11.787 6.99612 12.1262 7.90642C12.1285 7.9132 12.133 7.91999 12.1364 7.92677C12.989 12.6377 13.8416 17.3475 14.6943 22.0584C14.6965 22.1478 14.7112 22.2337 14.7418 22.3151C15.2427 23.663 19.5466 23.3046 24.3547 21.5156C29.1618 19.7267 32.6526 17.1847 32.1516 15.8367C32.1403 15.8073 32.1256 15.7791 32.1109 15.7508C32.1177 15.7485 32.1256 15.7451 32.1324 15.7429L32.1313 15.744Z" fill="url(#paint0_linear_362_22070)"/>
<mask id="mask3_362_22070" style="mask-type:luminance" maskUnits="userSpaceOnUse" x="12" y="2" width="21" height="22">
<path d="M32.1313 15.744C29.371 11.6494 26.6118 7.55474 23.8515 3.4601C23.8402 3.43974 23.8255 3.41939 23.8108 3.40016C23.8074 3.39564 23.8052 3.39112 23.8018 3.38659C23.2126 2.65157 20.4546 2.93088 17.3924 4.07073C14.1447 5.27843 11.787 6.99612 12.1262 7.90642C12.1285 7.9132 12.133 7.91999 12.1364 7.92677C12.989 12.6377 13.8416 17.3475 14.6943 22.0584C14.6965 22.1478 14.7112 22.2337 14.7418 22.3151C15.2427 23.663 19.5466 23.3046 24.3547 21.5156C29.1618 19.7267 32.6526 17.1847 32.1516 15.8367C32.1403 15.8073 32.1256 15.7791 32.1109 15.7508C32.1177 15.7485 32.1256 15.7451 32.1324 15.7429L32.1313 15.744Z" fill="white"/>
</mask>
<g mask="url(#mask3_362_22070)">
<path d="M26.0039 23.6637L32.6508 16.1235V23.6637H26.0039Z" fill="url(#paint1_linear_362_22070)"/>
<path d="M25.707 23.664L32.6513 15.7856V16.1238L26.0044 23.664H25.707Z" fill="url(#paint2_linear_362_22070)"/>
<path d="M25.4082 23.6642L32.651 15.4478V15.7859L25.7067 23.6642H25.4082Z" fill="url(#paint3_linear_362_22070)"/>
<path d="M25.1133 23.6638L32.6535 15.1104V15.4473L25.4107 23.6638H25.1133Z" fill="url(#paint4_linear_362_22070)"/>
<path d="M24.8125 23.664L32.6501 14.7725V15.1106L25.1099 23.664H24.8125Z" fill="url(#paint5_linear_362_22070)"/>
<path d="M24.5156 23.6635L32.6506 14.4351V14.772L24.813 23.6635H24.5156Z" fill="url(#paint6_linear_362_22070)"/>
<path d="M24.2188 23.6638L32.6512 14.0972V14.4353L24.5162 23.6638H24.2188Z" fill="url(#paint7_linear_362_22070)"/>
<path d="M23.9199 23.6638L32.6509 13.7603V14.0972L24.2185 23.6638H23.9199Z" fill="url(#paint8_linear_362_22070)"/>
<path d="M23.623 23.6641L32.6514 13.4224V13.7605L23.9204 23.6641H23.623Z" fill="url(#paint9_linear_362_22070)"/>
<path d="M23.3262 23.6638L32.6519 13.084V13.4221L23.6236 23.6638H23.3262Z" fill="url(#paint10_linear_362_22070)"/>
<path d="M23.0273 23.6638L32.6505 12.7471V13.0841L23.3247 23.6638H23.0273Z" fill="url(#paint11_linear_362_22070)"/>
<path d="M22.7305 23.6636L32.6522 12.4087V12.7468L23.029 23.6636H22.7305Z" fill="url(#paint12_linear_362_22070)"/>
<path d="M22.4336 23.6641L32.6527 12.0723V12.4092L22.731 23.6641H22.4336Z" fill="url(#paint13_linear_362_22070)"/>
<path d="M22.1367 23.6639L32.6532 11.7339V12.072L22.4341 23.6639H22.1367Z" fill="url(#paint14_linear_362_22070)"/>
<path d="M21.8379 23.6636L32.6518 11.3955V11.7336L22.1353 23.6636H21.8379Z" fill="url(#paint15_linear_362_22070)"/>
<path d="M21.541 23.6642L32.6523 11.0591V11.3961L21.8384 23.6642H21.541Z" fill="url(#paint16_linear_362_22070)"/>
<path d="M21.2422 23.6639L32.652 10.7207V11.0588L21.5407 23.6639H21.2422Z" fill="url(#paint17_linear_362_22070)"/>
<path d="M20.9434 23.6638L32.6246 10.4131L32.6506 10.4357V10.7207L21.2408 23.6638H20.9434Z" fill="url(#paint18_linear_362_22070)"/>
<path d="M20.6465 23.664L32.4577 10.2651L32.6251 10.4133L20.9439 23.664H20.6465Z" fill="url(#paint19_linear_362_22070)"/>
<path d="M20.3496 23.6641L32.2909 10.1182L32.4583 10.2652L20.647 23.6641H20.3496Z" fill="url(#paint20_linear_362_22070)"/>
<path d="M20.0508 23.6638L32.1233 9.96973L32.2906 10.1179L20.3493 23.6638H20.0508Z" fill="url(#paint21_linear_362_22070)"/>
<path d="M19.7539 23.6639L31.9564 9.82178L32.1238 9.96991L20.0513 23.6639H19.7539Z" fill="url(#paint22_linear_362_22070)"/>
<path d="M19.457 23.664L31.7896 9.6748L31.9569 9.82181L19.7544 23.664H19.457Z" fill="url(#paint23_linear_362_22070)"/>
<path d="M19.1602 23.6637L31.6228 9.52637L31.7901 9.6745L19.4576 23.6637H19.1602Z" fill="url(#paint24_linear_362_22070)"/>
<path d="M18.8613 23.6637L31.4528 9.37939L31.6213 9.5264L19.1587 23.6637H18.8613Z" fill="url(#paint25_linear_362_22070)"/>
<path d="M18.5625 23.6639L31.2852 9.23145L31.4525 9.37958L18.861 23.6639H18.5625Z" fill="url(#paint26_linear_362_22070)"/>
<path d="M18.2656 23.6639L31.1184 9.08447L31.2857 9.23148L18.563 23.6639H18.2656Z" fill="url(#paint27_linear_362_22070)"/>
<path d="M17.9668 23.6641L30.9496 8.93652L31.1169 9.08466L18.2642 23.6641H17.9668Z" fill="url(#paint28_linear_362_22070)"/>
<path d="M17.6719 23.6638L30.7847 8.78809L30.952 8.93622L17.9693 23.6638H17.6719Z" fill="url(#paint29_linear_362_22070)"/>
<path d="M17.373 23.6638L30.617 8.64111L30.7844 8.78812L17.6716 23.6638H17.373Z" fill="url(#paint30_linear_362_22070)"/>
<path d="M17.0742 23.664L30.4482 8.49316L30.6156 8.6413L17.3716 23.664H17.0742Z" fill="url(#paint31_linear_362_22070)"/>
<path d="M16.7773 23.6641L30.2814 8.34619L30.4488 8.4932L17.0747 23.6641H16.7773Z" fill="url(#paint32_linear_362_22070)"/>
<path d="M16.4805 23.6638L30.1146 8.19775L30.2819 8.34589L16.7779 23.6638H16.4805Z" fill="url(#paint33_linear_362_22070)"/>
<path d="M16.1836 23.6638L29.9466 8.05078L30.1151 8.19779L16.481 23.6638H16.1836Z" fill="url(#paint34_linear_362_22070)"/>
<path d="M15.8828 23.664L29.777 7.90283L29.9444 8.05097L16.1813 23.664H15.8828Z" fill="url(#paint35_linear_362_22070)"/>
<path d="M15.5859 23.6642L29.6102 7.75488L29.7775 7.90302L15.8833 23.6642H15.5859Z" fill="url(#paint36_linear_362_22070)"/>
<path d="M15.2891 23.6642L29.4433 7.60791L29.6107 7.75491L15.5865 23.6642H15.2891Z" fill="url(#paint37_linear_362_22070)"/>
<path d="M14.9922 23.6639L29.2765 7.45947L29.4439 7.60761L15.2896 23.6639H14.9922Z" fill="url(#paint38_linear_362_22070)"/>
<path d="M14.6934 23.6639L29.1089 7.3125L29.2762 7.4595L14.9919 23.6639H14.6934Z" fill="url(#paint39_linear_362_22070)"/>
<path d="M14.6315 23.6636L14.498 23.546L28.9407 7.16406L29.108 7.3122L14.6925 23.6636H14.6315Z" fill="url(#paint40_linear_362_22070)"/>
<path d="M28.7746 7.01758L14.332 23.3994L14.4991 23.5467L28.9417 7.1649L28.7746 7.01758Z" fill="url(#paint41_linear_362_22070)"/>
<path d="M28.6066 6.86963L14.1641 23.2515L14.3312 23.3988L28.7737 7.01695L28.6066 6.86963Z" fill="url(#paint42_linear_362_22070)"/>
<path d="M28.4386 6.72168L13.9961 23.1035L14.1632 23.2508L28.6057 6.869L28.4386 6.72168Z" fill="url(#paint43_linear_362_22070)"/>
<path d="M28.2707 6.57471L13.8281 22.9565L13.9952 23.1039L28.4378 6.72203L28.2707 6.57471Z" fill="url(#paint44_linear_362_22070)"/>
<path d="M28.1047 6.42676L13.6621 22.8086L13.8292 22.9559L28.2718 6.57408L28.1047 6.42676Z" fill="url(#paint45_linear_362_22070)"/>
<path d="M27.9367 6.2793L13.4941 22.6611L13.6612 22.8085L28.1038 6.42662L27.9367 6.2793Z" fill="url(#paint46_linear_362_22070)"/>
<path d="M27.7687 6.13135L13.3262 22.5132L13.4933 22.6605L27.9358 6.27867L27.7687 6.13135Z" fill="url(#paint47_linear_362_22070)"/>
<path d="M27.6027 5.98438L13.1602 22.3662L13.3273 22.5135L27.7698 6.1317L27.6027 5.98438Z" fill="url(#paint48_linear_362_22070)"/>
<path d="M27.4367 5.83496L12.9941 22.2168L13.1612 22.3641L27.6038 5.98228L27.4367 5.83496Z" fill="url(#paint49_linear_362_22070)"/>
<path d="M27.2668 5.6875L12.8242 22.0693L12.9913 22.2167L27.4339 5.83482L27.2668 5.6875Z" fill="url(#paint50_linear_362_22070)"/>
<path d="M27.0988 5.54102L12.6562 21.9229L12.8234 22.0702L27.2659 5.68834L27.0988 5.54102Z" fill="url(#paint51_linear_362_22070)"/>
<path d="M26.9328 5.39307L12.4902 21.7749L12.6573 21.9222L27.0999 5.54039L26.9328 5.39307Z" fill="url(#paint52_linear_362_22070)"/>
<path d="M26.7629 5.24561L12.3203 21.6274L12.4874 21.7748L26.93 5.39293L26.7629 5.24561Z" fill="url(#paint53_linear_362_22070)"/>
<path d="M26.5968 5.09815L12.1543 21.48L12.3214 21.6273L26.7639 5.24547L26.5968 5.09815Z" fill="url(#paint54_linear_362_22070)"/>
<path d="M26.4308 4.94971L11.9883 21.3315L12.1554 21.4789L26.5979 5.09703L26.4308 4.94971Z" fill="url(#paint55_linear_362_22070)"/>
<path d="M26.2629 4.80225L11.8203 21.1841L11.9874 21.3314L26.43 4.94957L26.2629 4.80225Z" fill="url(#paint56_linear_362_22070)"/>
<path d="M11.8188 21.1839L11.7871 21.1556V20.882L26.0929 4.65381L26.2603 4.80194L11.8188 21.1839Z" fill="url(#paint57_linear_362_22070)"/>
<path d="M11.7871 20.545L25.9256 4.50684L26.0929 4.65384L11.7871 20.882V20.545Z" fill="url(#paint58_linear_362_22070)"/>
<path d="M11.7871 20.2071L25.7582 4.35889L25.9256 4.50702L11.7871 20.5452V20.2071Z" fill="url(#paint59_linear_362_22070)"/>
<path d="M11.7871 19.869L25.5897 4.21191L25.7582 4.35892L11.7871 20.2071V19.869Z" fill="url(#paint60_linear_362_22070)"/>
<path d="M11.7871 19.5317L25.4224 4.06348L25.5897 4.21161L11.7871 19.8687V19.5317Z" fill="url(#paint61_linear_362_22070)"/>
<path d="M11.7871 19.1941L25.255 3.91699L25.4224 4.064L11.7871 19.5323V19.1941Z" fill="url(#paint62_linear_362_22070)"/>
<path d="M11.7871 18.8569L25.0876 3.76855L25.255 3.91669L11.7871 19.1938V18.8569Z" fill="url(#paint63_linear_362_22070)"/>
<path d="M11.7871 18.5185L24.9203 3.62012L25.0876 3.76825L11.7871 18.8566V18.5185Z" fill="url(#paint64_linear_362_22070)"/>
<path d="M11.7871 18.1809L24.7529 3.47363L24.9203 3.62064L11.7871 18.519V18.1809Z" fill="url(#paint65_linear_362_22070)"/>
<path d="M11.7871 17.8436L24.5856 3.3252L24.7529 3.47333L11.7871 18.1806V17.8436Z" fill="url(#paint66_linear_362_22070)"/>
<path d="M11.7871 17.5055L24.4182 3.17822L24.5856 3.32523L11.7871 17.8436V17.5055Z" fill="url(#paint67_linear_362_22070)"/>
<path d="M11.7871 17.1687L24.2508 3.03027L24.4182 3.17841L11.7871 17.5057V17.1687Z" fill="url(#paint68_linear_362_22070)"/>
<path d="M11.7871 16.8306L24.0823 2.8833L24.2508 3.03031L11.7871 17.1687V16.8306Z" fill="url(#paint69_linear_362_22070)"/>
<path d="M11.7871 16.4934L23.915 2.73486L24.0824 2.883L11.7871 16.8303V16.4934Z" fill="url(#paint70_linear_362_22070)"/>
<path d="M11.7871 16.1553L23.69 2.65234H23.8223L23.915 2.73489L11.7871 16.4934V16.1553Z" fill="url(#paint71_linear_362_22070)"/>
<path d="M11.7871 15.8172L23.3926 2.65234H23.69L11.7871 16.1553V15.8172Z" fill="url(#paint72_linear_362_22070)"/>
<path d="M11.7871 15.4802L23.0952 2.65234H23.3926L11.7871 15.8172V15.4802Z" fill="url(#paint73_linear_362_22070)"/>
<path d="M11.7871 15.1421L22.7978 2.65234H23.0952L11.7871 15.4802V15.1421Z" fill="url(#paint74_linear_362_22070)"/>
<path d="M11.7871 14.8051L22.4992 2.65234H22.7978L11.7871 15.1421V14.8051Z" fill="url(#paint75_linear_362_22070)"/>
<path d="M11.7871 14.467L22.2018 2.65234H22.4992L11.7871 14.8051V14.467Z" fill="url(#paint76_linear_362_22070)"/>
<path d="M11.7871 14.1289L21.9044 2.65234H22.2018L11.7871 14.467V14.1289Z" fill="url(#paint77_linear_362_22070)"/>
<path d="M11.7871 13.7919L21.607 2.65234H21.9044L11.7871 14.1289V13.7919Z" fill="url(#paint78_linear_362_22070)"/>
<path d="M11.7871 13.4538L21.3085 2.65234H21.607L11.7871 13.7919V13.4538Z" fill="url(#paint79_linear_362_22070)"/>
<path d="M11.7871 13.1168L21.0111 2.65234H21.3085L11.7871 13.4538V13.1168Z" fill="url(#paint80_linear_362_22070)"/>
<path d="M11.7871 12.7787L20.7137 2.65234H21.0111L11.7871 13.1168V12.7787Z" fill="url(#paint81_linear_362_22070)"/>
<path d="M11.7871 12.4417L20.4163 2.65234H20.7137L11.7871 12.7787V12.4417Z" fill="url(#paint82_linear_362_22070)"/>
<path d="M11.7871 12.1036L20.1189 2.65234H20.4163L11.7871 12.4417V12.1036Z" fill="url(#paint83_linear_362_22070)"/>
<path d="M11.7871 11.7655L19.8203 2.65234H20.1189L11.7871 12.1036V11.7655Z" fill="url(#paint84_linear_362_22070)"/>
<path d="M11.7871 11.4285L19.5229 2.65234H19.8203L11.7871 11.7655V11.4285Z" fill="url(#paint85_linear_362_22070)"/>
<path d="M11.7871 11.0904L19.2255 2.65234H19.5229L11.7871 11.4285V11.0904Z" fill="url(#paint86_linear_362_22070)"/>
<path d="M11.7871 10.7534L18.9281 2.65234H19.2255L11.7871 11.0904V10.7534Z" fill="url(#paint87_linear_362_22070)"/>
<path d="M11.7871 10.4153L18.6296 2.65234H18.9281L11.7871 10.7534V10.4153Z" fill="url(#paint88_linear_362_22070)"/>
<path d="M11.7871 10.0772L18.3322 2.65234H18.6296L11.7871 10.4153V10.0772Z" fill="url(#paint89_linear_362_22070)"/>
<path d="M11.7871 9.74022L18.0348 2.65234H18.3322L11.7871 10.0772V9.74022Z" fill="url(#paint90_linear_362_22070)"/>
<path d="M11.7871 9.40211L17.7374 2.65234H18.0348L11.7871 9.74022V9.40211Z" fill="url(#paint91_linear_362_22070)"/>
<path d="M11.7871 9.06513L17.44 2.65234H17.7374L11.7871 9.40211V9.06513Z" fill="url(#paint92_linear_362_22070)"/>
<path d="M11.7871 8.72702L17.1415 2.65234H17.44L11.7871 9.06513V8.72702Z" fill="url(#paint93_linear_362_22070)"/>
<path d="M11.7871 8.39004L16.8441 2.65234H17.1415L11.7871 8.72702V8.39004Z" fill="url(#paint94_linear_362_22070)"/>
<path d="M11.7871 8.05193L16.5467 2.65234H16.8441L11.7871 8.39004V8.05193Z" fill="url(#paint95_linear_362_22070)"/>
<path d="M11.7871 7.71382L16.2493 2.65234H16.5467L11.7871 8.05193V7.71382Z" fill="url(#paint96_linear_362_22070)"/>
<path d="M16.2493 2.65234L11.7871 7.71382V2.65234H16.2493Z" fill="url(#paint97_linear_362_22070)"/>
</g>
<mask id="mask4_362_22070" style="mask-type:luminance" maskUnits="userSpaceOnUse" x="12" y="2" width="12" height="7">
<path d="M18.6297 7.32984C21.8771 6.12151 24.235 4.40413 23.8964 3.49396C23.5577 2.58379 20.6506 2.82549 17.4033 4.03382C14.1559 5.24214 11.798 6.95952 12.1367 7.86969C12.4753 8.77986 15.3824 8.53816 18.6297 7.32984Z" fill="white"/>
</mask>
<g mask="url(#mask4_362_22070)">
<path d="M19.7461 8.77917L24.2354 3.68604V8.77917H19.7461Z" fill="#2AFFD8"/>
<path d="M19.6523 8.77903L24.2355 3.57959V3.68589L19.7462 8.77903H19.6523Z" fill="#2AFFD8"/>
<path d="M19.5586 8.77936L24.2356 3.47363V3.57993L19.6525 8.77936H19.5586Z" fill="#2BFED8"/>
<path d="M19.4648 8.77921L24.2357 3.36719V3.47348L19.5587 8.77921H19.4648Z" fill="#2BFDD9"/>
<path d="M19.3711 8.77906L24.2358 3.26074V3.36704L19.465 8.77906H19.3711Z" fill="#2CFCD9"/>
<path d="M19.2773 8.77907L24.2359 3.15332V3.26075L19.3712 8.77907H19.2773Z" fill="#2CFBD9"/>
<path d="M19.1836 8.77892L24.236 3.04688V3.15317L19.2775 8.77892H19.1836Z" fill="#2DFADA"/>
<path d="M19.0898 8.77877L24.2361 2.94043V3.04673L19.1837 8.77877H19.0898Z" fill="#2DF9DA"/>
<path d="M18.9961 8.77862L24.2362 2.83398V2.94028L19.09 8.77862H18.9961Z" fill="#2EF8DA"/>
<path d="M18.9023 8.77896L24.2364 2.72803V2.83432L18.9962 8.77896H18.9023Z" fill="#2FF7DB"/>
<path d="M18.8086 8.77922L24.2263 2.6333L24.2365 2.64235V2.72829L18.9025 8.77922H18.8086Z" fill="#2FF6DB"/>
<path d="M18.7148 8.77919L24.1732 2.58691L24.2264 2.63328L18.8087 8.77919H18.7148Z" fill="#30F5DB"/>
<path d="M18.6211 8.77917L24.0829 2.5835H24.17L24.1733 2.58689L18.715 8.77917H18.6211Z" fill="#30F4DC"/>
<path d="M18.5273 8.77917L23.9891 2.5835H24.083L18.6212 8.77917H18.5273Z" fill="#31F3DC"/>
<path d="M18.4336 8.77917L23.8954 2.5835H23.9892L18.5275 8.77917H18.4336Z" fill="#31F2DC"/>
<path d="M18.3379 8.77917L23.8008 2.5835H23.8947L18.4329 8.77917H18.3379Z" fill="#32F1DD"/>
<path d="M18.2422 8.77917L23.7051 2.5835H23.799L18.336 8.77917H18.2422Z" fill="#33F0DD"/>
<path d="M18.1504 8.77917L23.6133 2.5835H23.7072L18.2442 8.77917H18.1504Z" fill="#33EFDD"/>
<path d="M18.0566 8.77917L23.5196 2.5835H23.6134L18.1505 8.77917H18.0566Z" fill="#34EEDE"/>
<path d="M17.9629 8.77917L23.4258 2.5835H23.5197L18.0567 8.77917H17.9629Z" fill="#34EDDE"/>
<path d="M17.8672 8.77917L23.3301 2.5835H23.424L17.961 8.77917H17.8672Z" fill="#35ECDE"/>
<path d="M17.7754 8.77917L23.2383 2.5835H23.3322L17.8692 8.77917H17.7754Z" fill="#35EBDF"/>
<path d="M17.6816 8.77917L23.1446 2.5835H23.2384L17.7755 8.77917H17.6816Z" fill="#36EADF"/>
<path d="M17.5859 8.77917L23.0489 2.5835H23.1427L17.6798 8.77917H17.5859Z" fill="#37E9DF"/>
<path d="M17.4941 8.77917L22.9571 2.5835H23.0509L17.588 8.77917H17.4941Z" fill="#37E8E0"/>
<path d="M17.4004 8.77917L22.8633 2.5835H22.9572L17.4942 8.77917H17.4004Z" fill="#38E7E0"/>
<path d="M17.3047 8.77917L22.7676 2.5835H22.8615L17.3985 8.77917H17.3047Z" fill="#38E6E0"/>
<path d="M17.2109 8.77917L22.6727 2.5835H22.7677L17.3048 8.77917H17.2109Z" fill="#39E5E1"/>
<path d="M17.1172 8.77917L22.579 2.5835H22.6728L17.211 8.77917H17.1172Z" fill="#3AE4E1"/>
<path d="M17.0234 8.77917L22.4852 2.5835H22.5791L17.1173 8.77917H17.0234Z" fill="#3AE3E1"/>
<path d="M16.9297 8.77917L22.3915 2.5835H22.4853L17.0235 8.77917H16.9297Z" fill="#3BE2E2"/>
<path d="M16.8359 8.77917L22.2977 2.5835H22.3916L16.9298 8.77917H16.8359Z" fill="#3BE1E2"/>
<path d="M16.7422 8.77917L22.204 2.5835H22.2978L16.836 8.77917H16.7422Z" fill="#3CE0E2"/>
<path d="M16.6484 8.77917L22.1102 2.5835H22.2041L16.7423 8.77917H16.6484Z" fill="#3CDFE3"/>
<path d="M16.5547 8.77917L22.0165 2.5835H22.1103L16.6485 8.77917H16.5547Z" fill="#3DDEE3"/>
<path d="M16.4609 8.77917L21.9227 2.5835H22.0166L16.5548 8.77917H16.4609Z" fill="#3EDDE3"/>
<path d="M16.3672 8.77917L21.829 2.5835H21.9228L16.461 8.77917H16.3672Z" fill="#3EDCE4"/>
<path d="M16.2715 8.77917L21.7333 2.5835H21.8271L16.3653 8.77917H16.2715Z" fill="#3FDBE4"/>
<path d="M16.1777 8.77917L21.6395 2.5835H21.7334L16.2716 8.77917H16.1777Z" fill="#3FDAE4"/>
<path d="M16.0859 8.77917L21.5477 2.5835H21.6416L16.1798 8.77917H16.0859Z" fill="#40D9E5"/>
<path d="M15.9902 8.77917L21.452 2.5835H21.5459L16.0841 8.77917H15.9902Z" fill="#40D8E5"/>
<path d="M15.8965 8.77917L21.3583 2.5835H21.4521L15.9903 8.77917H15.8965Z" fill="#41D7E5"/>
<path d="M15.8027 8.77917L21.2645 2.5835H21.3584L15.8966 8.77917H15.8027Z" fill="#42D6E6"/>
<path d="M15.709 8.77917L21.1708 2.5835H21.2646L15.8028 8.77917H15.709Z" fill="#42D5E6"/>
<path d="M15.6152 8.77917L21.077 2.5835H21.1709L15.7091 8.77917H15.6152Z" fill="#43D4E6"/>
<path d="M15.5215 8.77917L20.9833 2.5835H21.0771L15.6153 8.77917H15.5215Z" fill="#43D3E7"/>
<path d="M15.4277 8.77917L20.8895 2.5835H20.9834L15.5216 8.77917H15.4277Z" fill="#44D2E7"/>
<path d="M15.334 8.77917L20.7958 2.5835H20.8896L15.4278 8.77917H15.334Z" fill="#44D1E7"/>
<path d="M15.2402 8.77917L20.702 2.5835H20.7959L15.3341 8.77917H15.2402Z" fill="#45D0E8"/>
<path d="M15.1465 8.77917L20.6083 2.5835H20.7021L15.2403 8.77917H15.1465Z" fill="#46CEE8"/>
<path d="M15.0527 8.77917L20.5145 2.5835H20.6084L15.1466 8.77917H15.0527Z" fill="#46CDE8"/>
<path d="M14.959 8.77917L20.4208 2.5835H20.5146L15.0528 8.77917H14.959Z" fill="#47CCE8"/>
<path d="M14.8652 8.77917L20.327 2.5835H20.4209L14.9591 8.77917H14.8652Z" fill="#47CBE9"/>
<path d="M14.7715 8.77917L20.2333 2.5835H20.3271L14.8653 8.77917H14.7715Z" fill="#48CAE9"/>
<path d="M14.6758 8.77917L20.1376 2.5835H20.2314L14.7696 8.77917H14.6758Z" fill="#48C9E9"/>
<path d="M14.584 8.77917L20.0458 2.5835H20.1396L14.6778 8.77917H14.584Z" fill="#49C8EA"/>
<path d="M14.4902 8.77917L19.952 2.5835H20.0459L14.5841 8.77917H14.4902Z" fill="#4AC7EA"/>
<path d="M14.3945 8.77917L19.8563 2.5835H19.9502L14.4884 8.77917H14.3945Z" fill="#4AC6EA"/>
<path d="M14.3008 8.77917L19.7626 2.5835H19.8564L14.3946 8.77917H14.3008Z" fill="#4BC5EB"/>
<path d="M14.2051 8.77917L19.668 2.5835H19.7619L14.3001 8.77917H14.2051Z" fill="#4BC4EB"/>
<path d="M14.1133 8.77917L19.5762 2.5835H19.6701L14.2071 8.77917H14.1133Z" fill="#4CC3EB"/>
<path d="M14.0195 8.77917L19.4824 2.5835H19.5763L14.1134 8.77917H14.0195Z" fill="#4CC2EC"/>
<path d="M13.9238 8.77917L19.3867 2.5835H19.4806L14.0177 8.77917H13.9238Z" fill="#4DC1EC"/>
<path d="M13.8301 8.77917L19.293 2.5835H19.3869L13.9239 8.77917H13.8301Z" fill="#4EC0EC"/>
<path d="M13.7383 8.77917L19.2012 2.5835H19.2951L13.8321 8.77917H13.7383Z" fill="#4EBFED"/>
<path d="M13.6426 8.77917L19.1055 2.5835H19.1994L13.7364 8.77917H13.6426Z" fill="#4FBEED"/>
<path d="M13.5488 8.77917L19.0117 2.5835H19.1056L13.6427 8.77917H13.5488Z" fill="#4FBDED"/>
<path d="M13.4551 8.77917L18.918 2.5835H19.0119L13.5489 8.77917H13.4551Z" fill="#50BCEE"/>
<path d="M13.3613 8.77917L18.8242 2.5835H18.9181L13.4552 8.77917H13.3613Z" fill="#50BBEE"/>
<path d="M13.2676 8.77917L18.7305 2.5835H18.8244L13.3614 8.77917H13.2676Z" fill="#51BAEE"/>
<path d="M13.1738 8.77917L18.6367 2.5835H18.7306L13.2677 8.77917H13.1738Z" fill="#52B9EF"/>
<path d="M13.0801 8.77917L18.5419 2.5835H18.6369L13.1739 8.77917H13.0801Z" fill="#52B8EF"/>
<path d="M12.9863 8.77917L18.4481 2.5835H18.542L13.0802 8.77917H12.9863Z" fill="#53B7EF"/>
<path d="M12.8926 8.77917L18.3544 2.5835H18.4482L12.9864 8.77917H12.8926Z" fill="#53B6F0"/>
<path d="M12.7988 8.77917L18.2606 2.5835H18.3545L12.8927 8.77917H12.7988Z" fill="#54B5F0"/>
<path d="M12.7051 8.77917L18.1669 2.5835H18.2607L12.7989 8.77917H12.7051Z" fill="#55B4F0"/>
<path d="M12.6094 8.77917L18.0712 2.5835H18.165L12.7032 8.77917H12.6094Z" fill="#55B3F1"/>
<path d="M12.5156 8.77917L17.9774 2.5835H18.0713L12.6095 8.77917H12.5156Z" fill="#56B2F1"/>
<path d="M12.4238 8.77917L17.8856 2.5835H17.9795L12.5177 8.77917H12.4238Z" fill="#56B1F1"/>
<path d="M12.3281 8.77917L17.7899 2.5835H17.8838L12.422 8.77917H12.3281Z" fill="#57B0F2"/>
<path d="M12.2344 8.77917L17.6962 2.5835H17.79L12.3282 8.77917H12.2344Z" fill="#57AFF2"/>
<path d="M12.1406 8.77917L17.6024 2.5835H17.6963L12.2345 8.77917H12.1406Z" fill="#58AEF2"/>
<path d="M12.0469 8.77917L17.5087 2.5835H17.6025L12.1407 8.77917H12.0469Z" fill="#59ADF3"/>
<path d="M11.9531 8.77917L17.4149 2.5835H17.5088L12.047 8.77917H11.9531Z" fill="#59ACF3"/>
<path d="M11.8659 8.77917L11.8613 8.77578L17.3209 2.5835H17.4147L11.9529 8.77917H11.8659Z" fill="#5AABF3"/>
<path d="M11.8626 8.77578L11.8105 8.72941L17.2282 2.5835H17.3221L11.8626 8.77578Z" fill="#5AAAF4"/>
<path d="M11.8101 8.72941L11.7988 8.72037V8.63443L17.134 2.5835H17.2278L11.8101 8.72941Z" fill="#5BA9F4"/>
<path d="M11.7988 8.52813L17.0401 2.5835H17.134L11.7988 8.63443V8.52813Z" fill="#5BA8F4"/>
<path d="M11.7988 8.42184L16.9463 2.5835H17.0401L11.7988 8.52813V8.42184Z" fill="#5CA7F5"/>
<path d="M11.7988 8.31554L16.8524 2.5835H16.9463L11.7988 8.42183V8.31554Z" fill="#5DA6F5"/>
<path d="M11.7988 8.20924L16.7585 2.5835H16.8524L11.7988 8.31554V8.20924Z" fill="#5DA5F5"/>
<path d="M11.7988 8.10295L16.6647 2.5835H16.7585L11.7988 8.20924V8.10295Z" fill="#5EA4F6"/>
<path d="M11.7988 7.99552L16.5708 2.5835H16.6647L11.7988 8.10295V7.99552Z" fill="#5EA3F6"/>
<path d="M11.7988 7.88923L16.477 2.5835H16.5708L11.7988 7.99552V7.88923Z" fill="#5FA2F6"/>
<path d="M11.7988 7.78293L16.3831 2.5835H16.477L11.7988 7.88923V7.78293Z" fill="#5FA1F7"/>
<path d="M11.7988 7.67664L16.2893 2.5835H16.3831L11.7988 7.78293V7.67664Z" fill="#60A0F7"/>
<path d="M16.2893 2.5835L11.7988 7.67664V2.5835H16.2893Z" fill="#60A0F7"/>
</g>
<mask id="mask5_362_22070" style="mask-type:luminance" maskUnits="userSpaceOnUse" x="24" y="34" width="4" height="10">
<path d="M25.2716 34.1823C25.2716 34.1823 24.765 36.1465 24.8283 37.0975C24.8917 38.0485 25.4616 39.2517 25.145 41.2159C24.8283 43.1801 24.5117 43.56 24.5117 43.56L26.6659 43.4967C26.6659 43.4967 27.4258 40.0749 27.1725 39.1239C26.9192 38.1729 26.9192 36.8431 27.0459 36.272C27.1725 35.7021 25.2716 34.1812 25.2716 34.1812V34.1823Z" fill="white"/>
</mask>
<g mask="url(#mask5_362_22070)">
<path d="M26.5469 43.5614L27.4255 43.0898V43.5614H26.5469Z" fill="#2AFFD8"/>
<path d="M26.3496 43.5616L27.4261 42.9849V43.09L26.5475 43.5616H26.3496Z" fill="#2AFFD8"/>
<path d="M26.1523 43.5614L27.4256 42.8784V42.9847L26.3491 43.5614H26.1523Z" fill="#2BFED8"/>
<path d="M25.957 43.5613L27.4282 42.772V42.8783L26.1549 43.5613H25.957Z" fill="#2BFDD9"/>
<path d="M25.7578 43.5615L27.4269 42.667V42.7722L25.9557 43.5615H25.7578Z" fill="#2CFCD9"/>
<path d="M25.5586 43.5613L27.4256 42.5605V42.6668L25.7565 43.5613H25.5586Z" fill="#2CFBD9"/>
<path d="M25.3633 43.5612L27.427 42.4541V42.5604L25.56 43.5612H25.3633Z" fill="#2DFADA"/>
<path d="M25.1641 43.5613L27.4257 42.3491V42.4543L25.362 43.5613H25.1641Z" fill="#2DF9DA"/>
<path d="M24.9668 43.5617L27.4263 42.2432V42.3495L25.1647 43.5617H24.9668Z" fill="#2EF8DA"/>
<path d="M24.7695 43.5615L27.4269 42.1367V42.243L24.9674 43.5615H24.7695Z" fill="#2FF7DB"/>
<path d="M24.5742 43.5617L27.4284 42.0317V42.1369L24.771 43.5617H24.5742Z" fill="#2FF6DB"/>
<path d="M24.5117 43.4881L27.4269 41.9253V42.0316L24.5728 43.5616H24.5117V43.4881Z" fill="#30F5DB"/>
<path d="M24.5117 43.3816L27.4269 41.8188V41.9251L24.5117 43.4879V43.3816Z" fill="#30F4DC"/>
<path d="M24.5117 43.2755L27.4269 41.7139V41.819L24.5117 43.3818V43.2755Z" fill="#31F3DC"/>
<path d="M24.5117 43.1702L27.4269 41.6074V41.7137L24.5117 43.2754V43.1702Z" fill="#31F2DC"/>
<path d="M24.5117 43.0637L27.4269 41.501V41.6073L24.5117 43.17V43.0637Z" fill="#32F1DD"/>
<path d="M24.5117 42.9576L27.4269 41.396V41.5012L24.5117 43.0639V42.9576Z" fill="#33F0DD"/>
<path d="M24.5117 42.8523L27.4269 41.2896V41.3958L24.5117 42.9575V42.8523Z" fill="#33EFDD"/>
<path d="M24.5117 42.7459L27.4269 41.1831V41.2894L24.5117 42.8522V42.7459Z" fill="#34EEDE"/>
<path d="M24.5117 42.6398L27.4269 41.0781V41.1833L24.5117 42.7461V42.6398Z" fill="#34EDDE"/>
<path d="M24.5117 42.5344L27.4269 40.9717V41.078L24.5117 42.6396V42.5344Z" fill="#35ECDE"/>
<path d="M24.5117 42.4285L27.4269 40.8657V40.972L24.5117 42.5348V42.4285Z" fill="#35EBDF"/>
<path d="M24.5117 42.3224L27.4269 40.7607V40.8659L24.5117 42.4287V42.3224Z" fill="#36EADF"/>
<path d="M24.5117 42.2176L27.4269 40.6548V40.7611L24.5117 42.3227V42.2176Z" fill="#37E9DF"/>
<path d="M24.5117 42.1106L27.4269 40.5479V40.6541L24.5117 42.2169V42.1106Z" fill="#37E8E0"/>
<path d="M24.5117 42.0045L27.4269 40.4429V40.548L24.5117 42.1108V42.0045Z" fill="#38E7E0"/>
<path d="M24.5117 41.8992L27.4269 40.3364V40.4427L24.5117 42.0044V41.8992Z" fill="#38E6E0"/>
<path d="M24.5117 41.7927L27.4269 40.23V40.3363L24.5117 41.899V41.7927Z" fill="#39E5E1"/>
<path d="M24.5117 41.6866L27.4269 40.125V40.2302L24.5117 41.7929V41.6866Z" fill="#3AE4E1"/>
<path d="M24.5117 41.5813L27.4269 40.0186V40.1249L24.5117 41.6865V41.5813Z" fill="#3AE3E1"/>
<path d="M24.5117 41.4749L27.4269 39.9121V40.0184L24.5117 41.5812V41.4749Z" fill="#3BE2E2"/>
<path d="M24.5117 41.3688L27.4269 39.8071V39.9123L24.5117 41.4751V41.3688Z" fill="#3BE1E2"/>
<path d="M24.5117 41.2635L27.4269 39.7007V39.807L24.5117 41.3686V41.2635Z" fill="#3CE0E2"/>
<path d="M24.5117 41.1575L27.4269 39.5947V39.701L24.5117 41.2638V41.1575Z" fill="#3CDFE3"/>
<path d="M24.5117 41.0509L27.4269 39.4893V39.5944L24.5117 41.1572V41.0509Z" fill="#3DDEE3"/>
<path d="M24.5117 40.9461L27.4269 39.3833V39.4896L24.5117 41.0512V40.9461Z" fill="#3EDDE3"/>
<path d="M24.5117 40.8396L27.4269 39.2769V39.3832L24.5117 40.9459V40.8396Z" fill="#3EDCE4"/>
<path d="M24.5117 40.7335L27.4269 39.1719V39.277L24.5117 40.8398V40.7335Z" fill="#3FDBE4"/>
<path d="M24.5117 40.6282L27.4269 39.0654V39.1717L24.5117 40.7334V40.6282Z" fill="#3FDAE4"/>
<path d="M24.5117 40.5218L27.4269 38.959V39.0653L24.5117 40.6281V40.5218Z" fill="#40D9E5"/>
<path d="M24.5117 40.4156L27.4269 38.854V38.9592L24.5117 40.5219V40.4156Z" fill="#40D8E5"/>
<path d="M24.5117 40.3103L27.4269 38.7476V38.8539L24.5117 40.4155V40.3103Z" fill="#41D7E5"/>
<path d="M24.5117 40.2039L27.4269 38.6411V38.7474L24.5117 40.3102V40.2039Z" fill="#42D6E6"/>
<path d="M24.5117 40.0978L27.4269 38.5361V38.6413L24.5117 40.2041V40.0978Z" fill="#42D5E6"/>
<path d="M24.5117 39.9925L27.4269 38.4297V38.536L24.5117 40.0976V39.9925Z" fill="#43D4E6"/>
<path d="M24.5117 39.8865L27.4269 38.3237V38.43L24.5117 39.9928V39.8865Z" fill="#43D3E7"/>
<path d="M24.5117 39.7799L27.4269 38.2183V38.3234L24.5117 39.8862V39.7799Z" fill="#44D2E7"/>
<path d="M24.5117 39.6751L27.4269 38.1123V38.2186L24.5117 39.7802V39.6751Z" fill="#44D1E7"/>
<path d="M24.5117 39.5686L27.4269 38.0059V38.1122L24.5117 39.6749V39.5686Z" fill="#45D0E8"/>
<path d="M24.5117 39.4625L27.4269 37.9009V38.006L24.5117 39.5688V39.4625Z" fill="#46CEE8"/>
<path d="M24.5117 39.3572L27.4269 37.7944V37.9007L24.5117 39.4624V39.3572Z" fill="#46CDE8"/>
<path d="M24.5117 39.2512L27.4269 37.6885V37.7948L24.5117 39.3575V39.2512Z" fill="#47CCE8"/>
<path d="M24.5117 39.1446L27.4269 37.583V37.6882L24.5117 39.2509V39.1446Z" fill="#47CBE9"/>
<path d="M24.5117 39.0393L27.4269 37.4766V37.5829L24.5117 39.1445V39.0393Z" fill="#48CAE9"/>
<path d="M24.5117 38.9329L27.4269 37.3701V37.4764L24.5117 39.0392V38.9329Z" fill="#48C9E9"/>
<path d="M24.5117 38.8268L27.4269 37.2651V37.3703L24.5117 38.9331V38.8268Z" fill="#49C8EA"/>
<path d="M24.5117 38.7215L27.4269 37.1587V37.265L24.5117 38.8266V38.7215Z" fill="#4AC7EA"/>
<path d="M24.5117 38.615L27.4269 37.0522V37.1585L24.5117 38.7213V38.615Z" fill="#4AC6EA"/>
<path d="M24.5117 38.5089L27.4269 36.9473V37.0524L24.5117 38.6152V38.5089Z" fill="#4BC5EB"/>
<path d="M24.5117 38.4036L27.4269 36.8408V36.9471L24.5117 38.5088V38.4036Z" fill="#4BC4EB"/>
<path d="M24.5117 38.2981L27.4269 36.7354V36.8416L24.5117 38.4044V38.2981Z" fill="#4CC3EB"/>
<path d="M24.5117 38.1915L27.4269 36.6299V36.7351L24.5117 38.2978V38.1915Z" fill="#4CC2EC"/>
<path d="M24.5117 38.0862L27.4269 36.5234V36.6297L24.5117 38.1914V38.0862Z" fill="#4DC1EC"/>
<path d="M24.5117 37.9798L27.4269 36.417V36.5233L24.5117 38.0861V37.9798Z" fill="#4EC0EC"/>
<path d="M24.5117 37.8737L27.4269 36.312V36.4172L24.5117 37.9799V37.8737Z" fill="#4EBFED"/>
<path d="M24.5117 37.7683L27.4269 36.2056V36.3119L24.5117 37.8735V37.7683Z" fill="#4FBEED"/>
<path d="M24.5117 37.6624L27.4269 36.0996V36.2059L24.5117 37.7687V37.6624Z" fill="#4FBDED"/>
<path d="M24.5117 37.5558L27.4269 35.9941V36.0993L24.5117 37.6621V37.5558Z" fill="#50BCEE"/>
<path d="M24.5117 37.4505L27.4269 35.8877V35.994L24.5117 37.5556V37.4505Z" fill="#50BBEE"/>
<path d="M24.5117 37.344L27.4269 35.7812V35.8875L24.5117 37.4503V37.344Z" fill="#51BAEE"/>
<path d="M24.5117 37.2379L27.4269 35.6763V35.7814L24.5117 37.3442V37.2379Z" fill="#52B9EF"/>
<path d="M24.5117 37.1326L27.4269 35.5698V35.6761L24.5117 37.2378V37.1326Z" fill="#52B8EF"/>
<path d="M24.5117 37.0266L27.4269 35.4639V35.5702L24.5117 37.1329V37.0266Z" fill="#53B7EF"/>
<path d="M24.5117 36.92L27.4269 35.3584V35.4636L24.5117 37.0263V36.92Z" fill="#53B6F0"/>
<path d="M24.5117 36.815L27.3975 35.2681L27.4269 35.3223V35.3585L24.5117 36.9202V36.815Z" fill="#54B5F0"/>
<path d="M24.5117 36.7087L27.3534 35.1855L27.3975 35.2681L24.5117 36.815V36.7087Z" fill="#55B4F0"/>
<path d="M24.5117 36.6025L27.3093 35.103L27.3534 35.1856L24.5117 36.7088V36.6025Z" fill="#55B3F1"/>
<path d="M24.5117 36.4973L27.2652 35.0205L27.3093 35.1031L24.5117 36.6025V36.4973Z" fill="#56B2F1"/>
<path d="M24.5117 36.3914L27.2211 34.9395L27.2652 35.0209L24.5117 36.4977V36.3914Z" fill="#56B1F1"/>
<path d="M24.5117 36.2851L27.177 34.8569L27.2211 34.9395L24.5117 36.3914V36.2851Z" fill="#57B0F2"/>
<path d="M24.5117 36.1795L27.1329 34.7739L27.177 34.8565L24.5117 36.2847V36.1795Z" fill="#57AFF2"/>
<path d="M24.5117 36.0732L27.0888 34.6914L27.1329 34.774L24.5117 36.1795V36.0732Z" fill="#58AEF2"/>
<path d="M24.5117 35.9668L27.0447 34.6099L27.0888 34.6913L24.5117 36.0731V35.9668Z" fill="#59ADF3"/>
<path d="M24.5117 35.8617L27.0006 34.5273L27.0447 34.6099L24.5117 35.9669V35.8617Z" fill="#59ACF3"/>
<path d="M24.5117 35.7554L26.9565 34.4448L27.0006 34.5274L24.5117 35.8617V35.7554Z" fill="#5AABF3"/>
<path d="M24.5117 35.6492L26.9124 34.3623L26.9565 34.4449L24.5117 35.7555V35.6492Z" fill="#5AAAF4"/>
<path d="M24.5117 35.5439L26.8683 34.2808L26.9124 34.3622L24.5117 35.649V35.5439Z" fill="#5BA9F4"/>
<path d="M24.5117 35.4376L26.8242 34.1982L26.8683 34.2808L24.5117 35.5439V35.4376Z" fill="#5BA8F4"/>
<path d="M24.5117 35.3315L26.6557 34.1826H26.8163L26.8242 34.1984L24.5117 35.4378V35.3315Z" fill="#5CA7F5"/>
<path d="M24.5117 35.2264L26.4578 34.1826H26.6557L24.5117 35.3315V35.2264Z" fill="#5DA6F5"/>
<path d="M24.5117 35.1201L26.2611 34.1826H26.4578L24.5117 35.2264V35.1201Z" fill="#5DA5F5"/>
<path d="M24.5117 35.0138L26.0632 34.1826H26.2611L24.5117 35.1201V35.0138Z" fill="#5EA4F6"/>
<path d="M24.5117 34.9086L25.8653 34.1826H26.0632L24.5117 35.0138V34.9086Z" fill="#5EA3F6"/>
<path d="M24.5117 34.8023L25.6674 34.1826H25.8653L24.5117 34.9086V34.8023Z" fill="#5FA2F6"/>
<path d="M24.5117 34.696L25.4706 34.1826H25.6674L24.5117 34.8023V34.696Z" fill="#5FA1F7"/>
<path d="M24.5117 34.5908L25.2728 34.1826H25.4706L24.5117 34.696V34.5908Z" fill="#60A0F7"/>
<path d="M25.2728 34.1826L24.5117 34.5908V34.1826H25.2728Z" fill="#60A0F7"/>
</g>
<defs>
<linearGradient id="paint0_linear_362_22070" x1="12.0934" y1="13.0561" x2="32.198" y2="13.0561" gradientUnits="userSpaceOnUse">
<stop stop-color="#2AFFD8"/>
<stop offset="1" stop-color="#60A0F7"/>
</linearGradient>
<linearGradient id="paint1_linear_362_22070" x1="26.0039" y1="19.8936" x2="32.6508" y2="19.8936" gradientUnits="userSpaceOnUse">
<stop stop-color="#2AFFD8"/>
<stop offset="1" stop-color="#60A0F7"/>
</linearGradient>
<linearGradient id="paint2_linear_362_22070" x1="25.707" y1="19.7242" x2="32.6513" y2="19.7242" gradientUnits="userSpaceOnUse">
<stop stop-color="#2AFFD8"/>
<stop offset="1" stop-color="#60A0F7"/>
</linearGradient>
<linearGradient id="paint3_linear_362_22070" x1="25.4082" y1="19.556" x2="32.651" y2="19.556" gradientUnits="userSpaceOnUse">
<stop stop-color="#2AFFD8"/>
<stop offset="1" stop-color="#60A0F7"/>
</linearGradient>
<linearGradient id="paint4_linear_362_22070" x1="25.1133" y1="19.3871" x2="32.6535" y2="19.3871" gradientUnits="userSpaceOnUse">
<stop stop-color="#2AFFD8"/>
<stop offset="1" stop-color="#60A0F7"/>
</linearGradient>
<linearGradient id="paint5_linear_362_22070" x1="24.8125" y1="19.2176" x2="32.6501" y2="19.2176" gradientUnits="userSpaceOnUse">
<stop stop-color="#2AFFD8"/>
<stop offset="1" stop-color="#60A0F7"/>
</linearGradient>
<linearGradient id="paint6_linear_362_22070" x1="24.5156" y1="19.0487" x2="32.6506" y2="19.0487" gradientUnits="userSpaceOnUse">
<stop stop-color="#2AFFD8"/>
<stop offset="1" stop-color="#60A0F7"/>
</linearGradient>
<linearGradient id="paint7_linear_362_22070" x1="24.2188" y1="18.8805" x2="32.6512" y2="18.8805" gradientUnits="userSpaceOnUse">
<stop stop-color="#2AFFD8"/>
<stop offset="1" stop-color="#60A0F7"/>
</linearGradient>
<linearGradient id="paint8_linear_362_22070" x1="23.9199" y1="18.712" x2="32.6509" y2="18.712" gradientUnits="userSpaceOnUse">
<stop stop-color="#2AFFD8"/>
<stop offset="1" stop-color="#60A0F7"/>
</linearGradient>
<linearGradient id="paint9_linear_362_22070" x1="23.623" y1="18.5426" x2="32.6514" y2="18.5426" gradientUnits="userSpaceOnUse">
<stop stop-color="#2AFFD8"/>
<stop offset="1" stop-color="#60A0F7"/>
</linearGradient>
<linearGradient id="paint10_linear_362_22070" x1="23.3262" y1="18.3739" x2="32.6519" y2="18.3739" gradientUnits="userSpaceOnUse">
<stop stop-color="#2AFFD8"/>
<stop offset="1" stop-color="#60A0F7"/>
</linearGradient>
<linearGradient id="paint11_linear_362_22070" x1="23.0273" y1="18.2055" x2="32.6505" y2="18.2055" gradientUnits="userSpaceOnUse">
<stop stop-color="#2AFFD8"/>
<stop offset="1" stop-color="#60A0F7"/>
</linearGradient>
<linearGradient id="paint12_linear_362_22070" x1="22.7305" y1="18.0356" x2="32.6522" y2="18.0356" gradientUnits="userSpaceOnUse">
<stop stop-color="#2AFFD8"/>
<stop offset="1" stop-color="#60A0F7"/>
</linearGradient>
<linearGradient id="paint13_linear_362_22070" x1="22.4336" y1="17.8676" x2="32.6527" y2="17.8676" gradientUnits="userSpaceOnUse">
<stop stop-color="#2AFFD8"/>
<stop offset="1" stop-color="#60A0F7"/>
</linearGradient>
<linearGradient id="paint14_linear_362_22070" x1="22.1367" y1="17.6989" x2="32.6532" y2="17.6989" gradientUnits="userSpaceOnUse">
<stop stop-color="#2AFFD8"/>
<stop offset="1" stop-color="#60A0F7"/>
</linearGradient>
<linearGradient id="paint15_linear_362_22070" x1="21.8379" y1="17.529" x2="32.6518" y2="17.529" gradientUnits="userSpaceOnUse">
<stop stop-color="#2AFFD8"/>
<stop offset="1" stop-color="#60A0F7"/>
</linearGradient>
<linearGradient id="paint16_linear_362_22070" x1="21.541" y1="17.3611" x2="32.6523" y2="17.3611" gradientUnits="userSpaceOnUse">
<stop stop-color="#2AFFD8"/>
<stop offset="1" stop-color="#60A0F7"/>
</linearGradient>
<linearGradient id="paint17_linear_362_22070" x1="21.2422" y1="17.1923" x2="32.652" y2="17.1923" gradientUnits="userSpaceOnUse">
<stop stop-color="#2AFFD8"/>
<stop offset="1" stop-color="#60A0F7"/>
</linearGradient>
<linearGradient id="paint18_linear_362_22070" x1="20.9434" y1="17.0385" x2="32.6506" y2="17.0385" gradientUnits="userSpaceOnUse">
<stop stop-color="#2AFFD8"/>
<stop offset="1" stop-color="#60A0F7"/>
</linearGradient>
<linearGradient id="paint19_linear_362_22070" x1="20.6465" y1="16.964" x2="32.6251" y2="16.964" gradientUnits="userSpaceOnUse">
<stop stop-color="#2AFFD8"/>
<stop offset="1" stop-color="#60A0F7"/>
</linearGradient>
<linearGradient id="paint20_linear_362_22070" x1="20.3496" y1="16.8905" x2="32.4583" y2="16.8905" gradientUnits="userSpaceOnUse">
<stop stop-color="#2AFFD8"/>
<stop offset="1" stop-color="#60A0F7"/>
</linearGradient>
<linearGradient id="paint21_linear_362_22070" x1="20.0508" y1="16.8167" x2="32.2906" y2="16.8167" gradientUnits="userSpaceOnUse">
<stop stop-color="#2AFFD8"/>
<stop offset="1" stop-color="#60A0F7"/>
</linearGradient>
<linearGradient id="paint22_linear_362_22070" x1="19.7539" y1="16.7434" x2="32.1238" y2="16.7434" gradientUnits="userSpaceOnUse">
<stop stop-color="#2AFFD8"/>
<stop offset="1" stop-color="#60A0F7"/>
</linearGradient>
<linearGradient id="paint23_linear_362_22070" x1="19.457" y1="16.6688" x2="31.9569" y2="16.6688" gradientUnits="userSpaceOnUse">
<stop stop-color="#2AFFD8"/>
<stop offset="1" stop-color="#60A0F7"/>
</linearGradient>
<linearGradient id="paint24_linear_362_22070" x1="19.1602" y1="16.595" x2="31.7901" y2="16.595" gradientUnits="userSpaceOnUse">
<stop stop-color="#2AFFD8"/>
<stop offset="1" stop-color="#60A0F7"/>
</linearGradient>
<linearGradient id="paint25_linear_362_22070" x1="18.8613" y1="16.5216" x2="31.6213" y2="16.5216" gradientUnits="userSpaceOnUse">
<stop stop-color="#2AFFD8"/>
<stop offset="1" stop-color="#60A0F7"/>
</linearGradient>
<linearGradient id="paint26_linear_362_22070" x1="18.5625" y1="16.4471" x2="31.4525" y2="16.4471" gradientUnits="userSpaceOnUse">
<stop stop-color="#2AFFD8"/>
<stop offset="1" stop-color="#60A0F7"/>
</linearGradient>
<linearGradient id="paint27_linear_362_22070" x1="18.2656" y1="16.3736" x2="31.2857" y2="16.3736" gradientUnits="userSpaceOnUse">
<stop stop-color="#2AFFD8"/>
<stop offset="1" stop-color="#60A0F7"/>
</linearGradient>
<linearGradient id="paint28_linear_362_22070" x1="17.9668" y1="16.3003" x2="31.1169" y2="16.3003" gradientUnits="userSpaceOnUse">
<stop stop-color="#2AFFD8"/>
<stop offset="1" stop-color="#60A0F7"/>
</linearGradient>
<linearGradient id="paint29_linear_362_22070" x1="17.6719" y1="16.2265" x2="30.952" y2="16.2265" gradientUnits="userSpaceOnUse">
<stop stop-color="#2AFFD8"/>
<stop offset="1" stop-color="#60A0F7"/>
</linearGradient>
<linearGradient id="paint30_linear_362_22070" x1="17.373" y1="16.1519" x2="30.7844" y2="16.1519" gradientUnits="userSpaceOnUse">
<stop stop-color="#2AFFD8"/>
<stop offset="1" stop-color="#60A0F7"/>
</linearGradient>
<linearGradient id="paint31_linear_362_22070" x1="17.0742" y1="16.0786" x2="30.6156" y2="16.0786" gradientUnits="userSpaceOnUse">
<stop stop-color="#2AFFD8"/>
<stop offset="1" stop-color="#60A0F7"/>
</linearGradient>
<linearGradient id="paint32_linear_362_22070" x1="16.7773" y1="16.0051" x2="30.4488" y2="16.0051" gradientUnits="userSpaceOnUse">
<stop stop-color="#2AFFD8"/>
<stop offset="1" stop-color="#60A0F7"/>
</linearGradient>
<linearGradient id="paint33_linear_362_22070" x1="16.4805" y1="15.9302" x2="30.2819" y2="15.9302" gradientUnits="userSpaceOnUse">
<stop stop-color="#2AFFD8"/>
<stop offset="1" stop-color="#60A0F7"/>
</linearGradient>
<linearGradient id="paint34_linear_362_22070" x1="16.1836" y1="15.8567" x2="30.1151" y2="15.8567" gradientUnits="userSpaceOnUse">
<stop stop-color="#2AFFD8"/>
<stop offset="1" stop-color="#60A0F7"/>
</linearGradient>
<linearGradient id="paint35_linear_362_22070" x1="15.8828" y1="15.7834" x2="29.9444" y2="15.7834" gradientUnits="userSpaceOnUse">
<stop stop-color="#2AFFD8"/>
<stop offset="1" stop-color="#60A0F7"/>
</linearGradient>
<linearGradient id="paint36_linear_362_22070" x1="15.5859" y1="15.709" x2="29.7775" y2="15.709" gradientUnits="userSpaceOnUse">
<stop stop-color="#2AFFD8"/>
<stop offset="1" stop-color="#60A0F7"/>
</linearGradient>
<linearGradient id="paint37_linear_362_22070" x1="15.2891" y1="15.6355" x2="29.6107" y2="15.6355" gradientUnits="userSpaceOnUse">
<stop stop-color="#2AFFD8"/>
<stop offset="1" stop-color="#60A0F7"/>
</linearGradient>
<linearGradient id="paint38_linear_362_22070" x1="14.9922" y1="15.5617" x2="29.4439" y2="15.5617" gradientUnits="userSpaceOnUse">
<stop stop-color="#2AFFD8"/>
<stop offset="1" stop-color="#60A0F7"/>
</linearGradient>
<linearGradient id="paint39_linear_362_22070" x1="14.6934" y1="15.4882" x2="29.2762" y2="15.4882" gradientUnits="userSpaceOnUse">
<stop stop-color="#2AFFD8"/>
<stop offset="1" stop-color="#60A0F7"/>
</linearGradient>
<linearGradient id="paint40_linear_362_22070" x1="14.498" y1="15.4133" x2="29.108" y2="15.4133" gradientUnits="userSpaceOnUse">
<stop stop-color="#2AFFD8"/>
<stop offset="1" stop-color="#60A0F7"/>
</linearGradient>
<linearGradient id="paint41_linear_362_22070" x1="14.3314" y1="15.2821" x2="28.9414" y2="15.2821" gradientUnits="userSpaceOnUse">
<stop stop-color="#2AFFD8"/>
<stop offset="1" stop-color="#60A0F7"/>
</linearGradient>
<linearGradient id="paint42_linear_362_22070" x1="14.164" y1="15.1352" x2="28.7741" y2="15.1352" gradientUnits="userSpaceOnUse">
<stop stop-color="#2AFFD8"/>
<stop offset="1" stop-color="#60A0F7"/>
</linearGradient>
<linearGradient id="paint43_linear_362_22070" x1="13.9974" y1="14.9863" x2="28.6074" y2="14.9863" gradientUnits="userSpaceOnUse">
<stop stop-color="#2AFFD8"/>
<stop offset="1" stop-color="#60A0F7"/>
</linearGradient>
<linearGradient id="paint44_linear_362_22070" x1="13.8283" y1="14.8389" x2="28.4372" y2="14.8389" gradientUnits="userSpaceOnUse">
<stop stop-color="#2AFFD8"/>
<stop offset="1" stop-color="#60A0F7"/>
</linearGradient>
<linearGradient id="paint45_linear_362_22070" x1="13.6629" y1="14.6909" x2="28.2718" y2="14.6909" gradientUnits="userSpaceOnUse">
<stop stop-color="#2AFFD8"/>
<stop offset="1" stop-color="#60A0F7"/>
</linearGradient>
<linearGradient id="paint46_linear_362_22070" x1="13.4947" y1="14.5426" x2="28.1036" y2="14.5426" gradientUnits="userSpaceOnUse">
<stop stop-color="#2AFFD8"/>
<stop offset="1" stop-color="#60A0F7"/>
</linearGradient>
<linearGradient id="paint47_linear_362_22070" x1="13.3273" y1="14.3957" x2="27.9362" y2="14.3957" gradientUnits="userSpaceOnUse">
<stop stop-color="#2AFFD8"/>
<stop offset="1" stop-color="#60A0F7"/>
</linearGradient>
<linearGradient id="paint48_linear_362_22070" x1="13.161" y1="14.2479" x2="27.7699" y2="14.2479" gradientUnits="userSpaceOnUse">
<stop stop-color="#2AFFD8"/>
<stop offset="1" stop-color="#60A0F7"/>
</linearGradient>
<linearGradient id="paint49_linear_362_22070" x1="12.9945" y1="14.0996" x2="27.6045" y2="14.0996" gradientUnits="userSpaceOnUse">
<stop stop-color="#2AFFD8"/>
<stop offset="1" stop-color="#60A0F7"/>
</linearGradient>
<linearGradient id="paint50_linear_362_22070" x1="12.8244" y1="13.9529" x2="27.4344" y2="13.9529" gradientUnits="userSpaceOnUse">
<stop stop-color="#2AFFD8"/>
<stop offset="1" stop-color="#60A0F7"/>
</linearGradient>
<linearGradient id="paint51_linear_362_22070" x1="12.6562" y1="13.8067" x2="27.2662" y2="13.8067" gradientUnits="userSpaceOnUse">
<stop stop-color="#2AFFD8"/>
<stop offset="1" stop-color="#60A0F7"/>
</linearGradient>
<linearGradient id="paint52_linear_362_22070" x1="12.4907" y1="13.6571" x2="27.0995" y2="13.6571" gradientUnits="userSpaceOnUse">
<stop stop-color="#2AFFD8"/>
<stop offset="1" stop-color="#60A0F7"/>
</linearGradient>
<linearGradient id="paint53_linear_362_22070" x1="12.3205" y1="13.5088" x2="26.9293" y2="13.5088" gradientUnits="userSpaceOnUse">
<stop stop-color="#2AFFD8"/>
<stop offset="1" stop-color="#60A0F7"/>
</linearGradient>
<linearGradient id="paint54_linear_362_22070" x1="12.155" y1="13.3624" x2="26.7639" y2="13.3624" gradientUnits="userSpaceOnUse">
<stop stop-color="#2AFFD8"/>
<stop offset="1" stop-color="#60A0F7"/>
</linearGradient>
<linearGradient id="paint55_linear_362_22070" x1="11.9888" y1="13.2132" x2="26.5976" y2="13.2132" gradientUnits="userSpaceOnUse">
<stop stop-color="#2AFFD8"/>
<stop offset="1" stop-color="#60A0F7"/>
</linearGradient>
<linearGradient id="paint56_linear_362_22070" x1="11.8214" y1="13.0668" x2="26.4303" y2="13.0668" gradientUnits="userSpaceOnUse">
<stop stop-color="#2AFFD8"/>
<stop offset="1" stop-color="#60A0F7"/>
</linearGradient>
<linearGradient id="paint57_linear_362_22070" x1="11.7871" y1="12.9189" x2="26.2603" y2="12.9189" gradientUnits="userSpaceOnUse">
<stop stop-color="#2AFFD8"/>
<stop offset="1" stop-color="#60A0F7"/>
</linearGradient>
<linearGradient id="paint58_linear_362_22070" x1="11.7871" y1="12.6939" x2="26.0929" y2="12.6939" gradientUnits="userSpaceOnUse">
<stop stop-color="#2AFFD8"/>
<stop offset="1" stop-color="#60A0F7"/>
</linearGradient>
<linearGradient id="paint59_linear_362_22070" x1="11.7871" y1="12.452" x2="25.9256" y2="12.452" gradientUnits="userSpaceOnUse">
<stop stop-color="#2AFFD8"/>
<stop offset="1" stop-color="#60A0F7"/>
</linearGradient>
<linearGradient id="paint60_linear_362_22070" x1="11.7871" y1="12.209" x2="25.7582" y2="12.209" gradientUnits="userSpaceOnUse">
<stop stop-color="#2AFFD8"/>
<stop offset="1" stop-color="#60A0F7"/>
</linearGradient>
<linearGradient id="paint61_linear_362_22070" x1="11.7871" y1="11.9667" x2="25.5897" y2="11.9667" gradientUnits="userSpaceOnUse">
<stop stop-color="#2AFFD8"/>
<stop offset="1" stop-color="#60A0F7"/>
</linearGradient>
<linearGradient id="paint62_linear_362_22070" x1="11.7871" y1="11.7241" x2="25.4224" y2="11.7241" gradientUnits="userSpaceOnUse">
<stop stop-color="#2AFFD8"/>
<stop offset="1" stop-color="#60A0F7"/>
</linearGradient>
<linearGradient id="paint63_linear_362_22070" x1="11.7871" y1="11.4818" x2="25.255" y2="11.4818" gradientUnits="userSpaceOnUse">
<stop stop-color="#2AFFD8"/>
<stop offset="1" stop-color="#60A0F7"/>
</linearGradient>
<linearGradient id="paint64_linear_362_22070" x1="11.7871" y1="11.2383" x2="25.0876" y2="11.2383" gradientUnits="userSpaceOnUse">
<stop stop-color="#2AFFD8"/>
<stop offset="1" stop-color="#60A0F7"/>
</linearGradient>
<linearGradient id="paint65_linear_362_22070" x1="11.7871" y1="10.9957" x2="24.9203" y2="10.9957" gradientUnits="userSpaceOnUse">
<stop stop-color="#2AFFD8"/>
<stop offset="1" stop-color="#60A0F7"/>
</linearGradient>
<linearGradient id="paint66_linear_362_22070" x1="11.7871" y1="10.7534" x2="24.7529" y2="10.7534" gradientUnits="userSpaceOnUse">
<stop stop-color="#2AFFD8"/>
<stop offset="1" stop-color="#60A0F7"/>
</linearGradient>
<linearGradient id="paint67_linear_362_22070" x1="11.7871" y1="10.5104" x2="24.5856" y2="10.5104" gradientUnits="userSpaceOnUse">
<stop stop-color="#2AFFD8"/>
<stop offset="1" stop-color="#60A0F7"/>
</linearGradient>
<linearGradient id="paint68_linear_362_22070" x1="11.7871" y1="10.2685" x2="24.4182" y2="10.2685" gradientUnits="userSpaceOnUse">
<stop stop-color="#2AFFD8"/>
<stop offset="1" stop-color="#60A0F7"/>
</linearGradient>
<linearGradient id="paint69_linear_362_22070" x1="11.7871" y1="10.0255" x2="24.2508" y2="10.0255" gradientUnits="userSpaceOnUse">
<stop stop-color="#2AFFD8"/>
<stop offset="1" stop-color="#60A0F7"/>
</linearGradient>
<linearGradient id="paint70_linear_362_22070" x1="11.7871" y1="9.78316" x2="24.0824" y2="9.78316" gradientUnits="userSpaceOnUse">
<stop stop-color="#2AFFD8"/>
<stop offset="1" stop-color="#60A0F7"/>
</linearGradient>
<linearGradient id="paint71_linear_362_22070" x1="11.7871" y1="9.57286" x2="23.915" y2="9.57286" gradientUnits="userSpaceOnUse">
<stop stop-color="#2AFFD8"/>
<stop offset="1" stop-color="#60A0F7"/>
</linearGradient>
<linearGradient id="paint72_linear_362_22070" x1="11.7871" y1="9.40437" x2="23.69" y2="9.40437" gradientUnits="userSpaceOnUse">
<stop stop-color="#2AFFD8"/>
<stop offset="1" stop-color="#60A0F7"/>
</linearGradient>
<linearGradient id="paint73_linear_362_22070" x1="11.7871" y1="9.23475" x2="23.3926" y2="9.23475" gradientUnits="userSpaceOnUse">
<stop stop-color="#2AFFD8"/>
<stop offset="1" stop-color="#60A0F7"/>
</linearGradient>
<linearGradient id="paint74_linear_362_22070" x1="11.7871" y1="9.06626" x2="23.0952" y2="9.06626" gradientUnits="userSpaceOnUse">
<stop stop-color="#2AFFD8"/>
<stop offset="1" stop-color="#60A0F7"/>
</linearGradient>
<linearGradient id="paint75_linear_362_22070" x1="11.7871" y1="8.89777" x2="22.7978" y2="8.89777" gradientUnits="userSpaceOnUse">
<stop stop-color="#2AFFD8"/>
<stop offset="1" stop-color="#60A0F7"/>
</linearGradient>
<linearGradient id="paint76_linear_362_22070" x1="11.7871" y1="8.72815" x2="22.4992" y2="8.72815" gradientUnits="userSpaceOnUse">
<stop stop-color="#2AFFD8"/>
<stop offset="1" stop-color="#60A0F7"/>
</linearGradient>
<linearGradient id="paint77_linear_362_22070" x1="11.7871" y1="8.55966" x2="22.2018" y2="8.55966" gradientUnits="userSpaceOnUse">
<stop stop-color="#2AFFD8"/>
<stop offset="1" stop-color="#60A0F7"/>
</linearGradient>
<linearGradient id="paint78_linear_362_22070" x1="11.7871" y1="8.39117" x2="21.9044" y2="8.39117" gradientUnits="userSpaceOnUse">
<stop stop-color="#2AFFD8"/>
<stop offset="1" stop-color="#60A0F7"/>
</linearGradient>
<linearGradient id="paint79_linear_362_22070" x1="11.7871" y1="8.22268" x2="21.607" y2="8.22268" gradientUnits="userSpaceOnUse">
<stop stop-color="#2AFFD8"/>
<stop offset="1" stop-color="#60A0F7"/>
</linearGradient>
<linearGradient id="paint80_linear_362_22070" x1="11.7871" y1="8.05306" x2="21.3085" y2="8.05306" gradientUnits="userSpaceOnUse">
<stop stop-color="#2AFFD8"/>
<stop offset="1" stop-color="#60A0F7"/>
</linearGradient>
<linearGradient id="paint81_linear_362_22070" x1="11.7871" y1="7.88457" x2="21.0111" y2="7.88457" gradientUnits="userSpaceOnUse">
<stop stop-color="#2AFFD8"/>
<stop offset="1" stop-color="#60A0F7"/>
</linearGradient>
<linearGradient id="paint82_linear_362_22070" x1="11.7871" y1="7.71608" x2="20.7137" y2="7.71608" gradientUnits="userSpaceOnUse">
<stop stop-color="#2AFFD8"/>
<stop offset="1" stop-color="#60A0F7"/>
</linearGradient>
<linearGradient id="paint83_linear_362_22070" x1="11.7871" y1="7.54646" x2="20.4163" y2="7.54646" gradientUnits="userSpaceOnUse">
<stop stop-color="#2AFFD8"/>
<stop offset="1" stop-color="#60A0F7"/>
</linearGradient>
<linearGradient id="paint84_linear_362_22070" x1="11.7871" y1="7.37797" x2="20.1189" y2="7.37797" gradientUnits="userSpaceOnUse">
<stop stop-color="#2AFFD8"/>
<stop offset="1" stop-color="#60A0F7"/>
</linearGradient>
<linearGradient id="paint85_linear_362_22070" x1="11.7871" y1="7.20948" x2="19.8203" y2="7.20948" gradientUnits="userSpaceOnUse">
<stop stop-color="#2AFFD8"/>
<stop offset="1" stop-color="#60A0F7"/>
</linearGradient>
<linearGradient id="paint86_linear_362_22070" x1="11.7871" y1="7.04099" x2="19.5229" y2="7.04099" gradientUnits="userSpaceOnUse">
<stop stop-color="#2AFFD8"/>
<stop offset="1" stop-color="#60A0F7"/>
</linearGradient>
<linearGradient id="paint87_linear_362_22070" x1="11.7871" y1="6.87137" x2="19.2255" y2="6.87137" gradientUnits="userSpaceOnUse">
<stop stop-color="#2AFFD8"/>
<stop offset="1" stop-color="#60A0F7"/>
</linearGradient>
<linearGradient id="paint88_linear_362_22070" x1="11.7871" y1="6.70288" x2="18.9281" y2="6.70288" gradientUnits="userSpaceOnUse">
<stop stop-color="#2AFFD8"/>
<stop offset="1" stop-color="#60A0F7"/>
</linearGradient>
<linearGradient id="paint89_linear_362_22070" x1="11.7871" y1="6.53439" x2="18.6296" y2="6.53439" gradientUnits="userSpaceOnUse">
<stop stop-color="#2AFFD8"/>
<stop offset="1" stop-color="#60A0F7"/>
</linearGradient>
<linearGradient id="paint90_linear_362_22070" x1="11.7871" y1="6.36477" x2="18.3322" y2="6.36477" gradientUnits="userSpaceOnUse">
<stop stop-color="#2AFFD8"/>
<stop offset="1" stop-color="#60A0F7"/>
</linearGradient>
<linearGradient id="paint91_linear_362_22070" x1="11.7871" y1="6.19628" x2="18.0348" y2="6.19628" gradientUnits="userSpaceOnUse">
<stop stop-color="#2AFFD8"/>
<stop offset="1" stop-color="#60A0F7"/>
</linearGradient>
<linearGradient id="paint92_linear_362_22070" x1="11.7871" y1="6.02779" x2="17.7374" y2="6.02779" gradientUnits="userSpaceOnUse">
<stop stop-color="#2AFFD8"/>
<stop offset="1" stop-color="#60A0F7"/>
</linearGradient>
<linearGradient id="paint93_linear_362_22070" x1="11.7871" y1="5.85817" x2="17.44" y2="5.85817" gradientUnits="userSpaceOnUse">
<stop stop-color="#2AFFD8"/>
<stop offset="1" stop-color="#60A0F7"/>
</linearGradient>
<linearGradient id="paint94_linear_362_22070" x1="11.7871" y1="5.68968" x2="17.1415" y2="5.68968" gradientUnits="userSpaceOnUse">
<stop stop-color="#2AFFD8"/>
<stop offset="1" stop-color="#60A0F7"/>
</linearGradient>
<linearGradient id="paint95_linear_362_22070" x1="11.7871" y1="5.52119" x2="16.8441" y2="5.52119" gradientUnits="userSpaceOnUse">
<stop stop-color="#2AFFD8"/>
<stop offset="1" stop-color="#60A0F7"/>
</linearGradient>
<linearGradient id="paint96_linear_362_22070" x1="11.7871" y1="5.3527" x2="16.5467" y2="5.3527" gradientUnits="userSpaceOnUse">
<stop stop-color="#2AFFD8"/>
<stop offset="1" stop-color="#60A0F7"/>
</linearGradient>
<linearGradient id="paint97_linear_362_22070" x1="11.7871" y1="5.18308" x2="16.2493" y2="5.18308" gradientUnits="userSpaceOnUse">
<stop stop-color="#2AFFD8"/>
<stop offset="1" stop-color="#60A0F7"/>
</linearGradient>
</defs>
</svg>
