<svg width="48" height="48" viewBox="0 0 48 48" fill="none" xmlns="http://www.w3.org/2000/svg">
<path d="M4.43596 14.4068C4.77447 13.3156 6.93805 6.69697 13.5661 3.84217C13.5661 3.84217 19.5858 1.28563 27.156 4.38662C27.4661 4.51444 27.7052 4.72039 27.7052 4.72039C27.9111 4.90029 28.039 5.08966 28.1123 5.21512C28.3112 5.84242 28.5124 6.46735 28.7112 7.09465C28.4674 7.0189 28.2141 6.94552 27.9514 6.87687C27.6815 6.80349 27.3927 6.73248 27.0874 6.6662C27.0874 6.6662 26.0245 6.43185 25.0705 6.32296C24.5308 6.26141 23.0869 6.15252 20.2723 6.72301C19.0816 6.96446 16.989 7.40002 14.3828 8.52205C12.8418 9.18723 11.0853 9.93998 9.14188 11.481C8.00328 12.3829 6.39361 13.8766 4.9378 16.1562C4.76973 15.5738 4.60166 14.9891 4.43359 14.4068H4.43596Z" fill="url(#paint0_linear_362_22072)"/>
<path d="M26.5213 9.93688C26.4361 9.96766 26.3508 9.98896 26.2656 10.0032C30.0531 20.9655 33.8406 31.9255 37.6256 42.8878H37.628C37.647 42.9446 37.6635 43.0038 37.6848 43.0606C38.2387 44.5448 39.7608 45.3473 41.0841 44.8549C42.4073 44.3602 43.0299 42.7576 42.476 41.2734C42.4334 41.1598 42.3836 41.0509 42.3316 40.9467C38.0233 30.2187 33.7151 19.4931 29.4092 8.76514C29.2909 8.86692 29.1583 8.95214 29.0044 9.00895L26.5213 9.93452V9.93688Z" fill="url(#paint1_linear_362_22072)"/>
<path d="M25.043 6.31088C25.4525 7.54181 25.8596 8.77273 26.2692 10.0037C26.3544 9.98946 26.4396 9.96815 26.5248 9.93738L29.008 9.01182C29.1618 8.95501 29.2968 8.86742 29.4128 8.768C28.9772 7.57968 28.544 6.39137 28.1084 5.20068C27.6942 5.47527 27.1142 5.79484 26.3804 6.02919C25.8809 6.18779 25.4264 6.27064 25.0453 6.31088H25.043Z" fill="url(#paint2_linear_362_22072)"/>
<path d="M27.9623 5.14662L25.0814 6.22147C24.8585 6.30465 24.7452 6.55279 24.8283 6.77572L24.9458 7.09065C25.029 7.31358 25.2771 7.42687 25.5001 7.3437L28.381 6.26884C28.604 6.18567 28.7173 5.93753 28.6341 5.7146L28.5166 5.39967C28.4334 5.17674 28.1853 5.06344 27.9623 5.14662Z" fill="url(#paint3_linear_362_22072)"/>
<path d="M25.7349 31.765C25.4106 31.7223 22.8849 31.4194 20.3615 32.9911C18.8938 33.9049 17.1658 35.6187 17.296 37.0201C17.3268 37.3444 17.4499 37.5858 17.5611 37.7468C17.6203 37.7799 17.7316 37.8344 17.8949 37.8509C18.3612 37.8983 18.8583 37.6166 20.6479 36.5206C21.4859 36.0069 21.5758 35.943 21.7321 35.8152C22.1321 35.4885 21.9996 35.4885 22.8754 34.4848C22.9843 34.3594 23.3039 34.0161 23.9454 33.3249C24.0945 33.164 24.1442 33.1071 24.2389 33.0267C24.7076 32.629 25.2757 32.3662 25.4461 32.2881C26.1468 31.9685 26.6439 31.9117 26.6818 31.8312C26.7055 31.7815 26.5469 31.7389 25.7349 31.7673V31.765Z" fill="url(#paint4_linear_362_22072)"/>
<path d="M16.7696 32.4088C16.7625 32.0939 16.727 31.4027 16.4714 30.5269C16.3293 30.0392 15.9056 29.2533 15.0653 27.7052C14.7244 27.0779 14.4119 26.4648 13.787 25.2386C13.6355 24.9427 13.5574 24.8054 13.4911 24.59C13.1857 23.6195 13.2875 22.6229 13.3183 22.327C13.4509 21.1056 13.9054 20.3788 13.7799 20.2605C13.7018 20.1871 13.4248 20.3646 12.5419 21.4961C12.5419 21.4961 9.88354 25.7499 10.4398 30.1765C10.9961 34.6031 12.7573 36.6365 13.9361 37.3964C15.115 38.1562 15.7967 37.6449 15.7967 37.6449C15.7967 37.6449 15.8512 36.8543 15.8796 36.3383C15.8204 36.3241 15.7541 36.3075 15.6807 36.2862C15.4937 36.227 15.3351 36.1584 15.1813 36.0708C14.6084 35.7417 14.206 35.2754 14.0782 35.1168C13.1052 33.9214 12.9632 32.4419 12.9253 32.0348C12.8827 31.5803 12.8993 31.2133 12.9206 30.9814C12.9206 30.9814 13.2662 32.5816 13.5006 32.9864C13.8793 33.6421 14.7552 34.5037 15.2333 34.7333C15.5316 34.8753 15.9719 35.0103 16.263 35.0931C16.3909 34.7949 16.5258 34.4303 16.6252 33.9877C16.7815 33.2917 16.7767 32.7307 16.7696 32.4111V32.4088Z" fill="url(#paint5_linear_362_22072)"/>
<path d="M23.7966 40.2343C23.7706 40.3005 23.7185 40.3976 23.29 40.703C23.0083 40.9065 22.8663 41.006 22.774 41.0391C22.4284 41.1598 21.8981 41.1362 21.7277 40.8426C21.6401 40.6911 21.6804 40.5231 21.7514 40.2343C21.82 39.9597 21.8958 39.6496 22.1538 39.4957C22.2816 39.4176 22.4473 39.4223 22.7716 39.4294C23.3232 39.4436 23.6001 39.4507 23.7445 39.6425C23.8747 39.8176 23.8605 40.0686 23.7942 40.2343H23.7966Z" fill="url(#paint6_linear_362_22072)"/>
<path d="M10.8969 39.4371C10.8709 39.4986 10.8235 39.5886 10.4211 39.8774C10.156 40.0667 10.0234 40.1638 9.93586 40.1946C9.61156 40.3082 9.11208 40.2845 8.95348 40.0099C8.87063 39.8679 8.90851 39.7093 8.97716 39.4371C9.04107 39.1767 9.11208 38.8879 9.3559 38.7411C9.47663 38.6677 9.63286 38.6701 9.93822 38.6796C10.4566 38.6938 10.717 38.6985 10.8519 38.8808C10.975 39.0465 10.9608 39.2832 10.8993 39.4371H10.8969Z" fill="url(#paint7_linear_362_22072)"/>
<path d="M12.463 42.8098C12.3825 42.9139 12.2239 43.0654 10.9267 43.5483C10.0698 43.8679 9.64129 44.0265 9.3596 44.0786C8.30858 44.2703 6.69891 44.2301 6.18287 43.7685C5.91538 43.5294 6.04084 43.2643 6.25862 42.8098C6.46456 42.3766 6.69654 41.889 7.48244 41.6475C7.87302 41.5268 8.37486 41.5291 9.36197 41.5433C11.0403 41.5647 11.8806 41.5765 12.3162 41.8795C12.7139 42.1564 12.6665 42.5518 12.4653 42.8098H12.463Z" fill="url(#paint8_linear_362_22072)"/>
<defs>
<linearGradient id="paint0_linear_362_22072" x1="21.1642" y1="14.7009" x2="8.4276" y2="3.49262" gradientUnits="userSpaceOnUse">
<stop stop-color="#2ACAD8"/>
<stop offset="1" stop-color="#60A0F7"/>
</linearGradient>
<linearGradient id="paint1_linear_362_22072" x1="51.8331" y1="30.105" x2="19.0862" y2="23.9418" gradientUnits="userSpaceOnUse">
<stop stop-color="#2AFFD8"/>
<stop offset="1" stop-color="#60A0F7"/>
</linearGradient>
<linearGradient id="paint2_linear_362_22072" x1="29.0318" y1="9.22652" x2="25.2282" y2="5.87801" gradientUnits="userSpaceOnUse">
<stop stop-color="#2AFFD8"/>
<stop offset="1" stop-color="#60A0F7"/>
</linearGradient>
<linearGradient id="paint3_linear_362_22072" x1="27.7111" y1="7.10748" x2="25.7491" y2="5.38367" gradientUnits="userSpaceOnUse">
<stop stop-color="#2AFFD8"/>
<stop offset="1" stop-color="#60A0F7"/>
</linearGradient>
<linearGradient id="paint4_linear_362_22072" x1="18.2935" y1="38.0282" x2="21.6979" y2="29.7337" gradientUnits="userSpaceOnUse">
<stop stop-color="#2AFFD8"/>
<stop offset="1" stop-color="#60A0F7"/>
</linearGradient>
<linearGradient id="paint5_linear_362_22072" x1="17.6597" y1="36.6507" x2="9.94745" y2="22.2607" gradientUnits="userSpaceOnUse">
<stop stop-color="#2AFFD8"/>
<stop offset="1" stop-color="#60A0F7"/>
</linearGradient>
<linearGradient id="paint6_linear_362_22072" x1="23.0841" y1="40.8805" x2="22.3005" y2="39.42" gradientUnits="userSpaceOnUse">
<stop stop-color="#2AFFD8"/>
<stop offset="1" stop-color="#60A0F7"/>
</linearGradient>
<linearGradient id="paint7_linear_362_22072" x1="10.2247" y1="40.0431" x2="9.48846" y2="38.6701" gradientUnits="userSpaceOnUse">
<stop stop-color="#2AFFD8"/>
<stop offset="1" stop-color="#60A0F7"/>
</linearGradient>
<linearGradient id="paint8_linear_362_22072" x1="9.39984" y1="44.2206" x2="9.1939" y2="40.7527" gradientUnits="userSpaceOnUse">
<stop stop-color="#2AFFD8"/>
<stop offset="1" stop-color="#60A0F7"/>
</linearGradient>
</defs>
</svg>
