<svg width="50" height="50" viewBox="0 0 50 50" fill="none" xmlns="http://www.w3.org/2000/svg">
<path d="M24.5861 13.3477C25.1028 13.3641 25.3063 13.3875 25.671 13.3828C25.9679 13.3781 26.2088 13.3617 26.3631 13.3477C26.7115 12.1786 27.2516 11.6619 27.6958 11.407C28.0091 11.227 28.1237 11.2644 29.4821 10.8693C30.3238 10.6238 30.7447 10.5022 31.0931 10.3432C31.2567 10.2684 32.0119 9.90828 32.7765 9.16708C33.693 8.27391 34.1349 7.29889 34.343 6.71436C32.2434 8.28793 30.4337 8.84675 29.1711 9.06888C27.8337 9.30269 26.9757 9.17877 25.6546 9.80072C25.035 10.093 23.721 10.7079 22.8466 12.0313C22.6361 12.3493 22.559 12.5434 22.393 12.7819C22.3602 12.8286 22.3322 12.859 22.1662 13.0648C21.9885 13.2846 21.8459 13.4646 21.75 13.5815C21.8225 13.5605 21.937 13.5301 22.0797 13.4997C22.2737 13.4576 22.8583 13.3337 23.7935 13.329C23.9315 13.329 24.1512 13.336 24.5885 13.35L24.5861 13.3477Z" fill="url(#paint0_linear_362_22069)"/>
<path d="M38.2609 40.4776C36.6616 39.8182 35.9251 38.1277 35.8456 37.9384C35.0811 36.1146 35.7872 34.4685 36.9048 31.8732C37.4589 30.5872 37.833 30.1897 38.2492 30.15C38.8922 30.0892 39.6146 30.7228 39.8601 31.4289C40.2974 32.6915 39.14 33.9284 39.3785 34.0968C39.61 34.2604 40.8071 33.1615 41.443 31.8264C41.6885 31.3144 41.7774 30.9169 41.7938 30.5358C41.8195 29.8998 41.6348 29.4181 41.5459 29.2147C41.0175 28.0082 39.7479 26.9864 38.9436 26.3247C35.3219 23.3459 35.1489 21.9898 35.2167 21.7817C35.2775 21.6017 35.4014 21.5035 35.4014 21.5035C35.5323 21.4029 35.6843 21.3912 35.7731 21.3889C36.6453 21.3678 37.5174 21.7817 37.5174 21.7817C38.0014 22.0108 38.1463 22.1535 38.1884 22.1114C38.2632 22.0389 37.9032 21.459 35.9953 19.2354C34.569 17.3018 33.1778 16.584 32.1421 16.294C31.1998 16.0298 29.9513 15.9527 29.9536 15.7376C29.9536 15.6066 30.4282 15.5061 30.793 15.4383C33.1311 15.0057 33.9635 15.3401 35.1699 15.0455C36.4512 14.7322 37.2672 13.9255 38.1019 13.1048C39.1868 12.0339 39.776 10.921 40.0846 10.2148C39.306 10.8649 38.5952 11.274 38.0902 11.5265C37.2859 11.9264 36.6125 12.1275 35.544 12.4454C35.3616 12.4992 34.7116 12.691 33.6455 12.9411C32.6307 13.1796 31.5903 13.3877 30.2996 13.6028C28.338 13.9278 27.1128 14.1313 26.5797 14.0938C25.3756 14.2271 24.5432 14.2388 23.961 14.2108C23.6384 14.1944 22.6073 14.1289 21.319 14.4376C21.1881 14.4679 21.0712 14.5007 20.9589 14.5311C20.1803 14.7228 19.5467 14.8701 19.1212 14.9683C17.405 15.3635 16.8135 15.457 15.9928 15.8919C15.289 16.2637 14.8728 16.4834 14.7232 16.9511C14.5104 17.6104 14.9897 18.2511 14.6086 18.6673C14.5034 18.7818 14.3701 18.8193 14.113 18.9081C13.5027 19.1139 13.0421 19.0274 12.7241 19.032C11.8684 19.0437 11.4312 19.7311 10.8653 20.0702C10.1849 20.4793 8.95978 20.5986 6.57491 19.3103C6.49308 19.5347 6.01377 20.9026 6.74793 22.3242C7.60602 23.9866 9.37596 24.2789 9.55599 24.3069C9.68459 24.0941 10.0634 23.5423 10.7952 23.2337C11.7842 22.8175 12.6774 23.1589 12.8597 23.2337C13.8558 22.9975 14.6764 22.7824 15.268 22.6258C16.5633 22.2774 17.5219 21.9828 17.6622 22.2634C17.6879 22.3171 17.6903 22.3826 17.6622 22.4598C17.4962 22.9555 18.4057 23.6172 17.2484 24.4425C16.091 25.2679 14.8541 25.3521 14.6063 26.4253C14.3585 27.4985 14.936 27.9942 14.1106 28.8195C13.2853 29.6449 10.9729 30.3066 12.3757 30.6363C13.7786 30.966 13.9446 32.5349 15.8455 30.7181C17.1385 29.4812 17.55 29.1633 17.6832 28.8008C17.73 28.6746 17.7978 28.4408 17.7464 28.1579C17.6786 27.7908 17.4658 27.7089 17.4775 27.5359C17.5079 27.1478 18.6442 26.8017 19.8109 26.755C20.9893 26.7082 21.1647 27.0075 22.2192 26.8274C22.9276 26.7059 23.4233 26.4744 23.6431 26.3621C23.7787 26.292 24.1645 26.0886 24.5573 25.7589C25.4387 25.0177 25.8456 24.0708 26.0233 23.554C26.1402 23.5493 28.7892 23.5002 29.7221 25.1019C30.9169 27.1548 28.4572 30.0331 28.1533 30.3885C27.8002 30.8 27.1759 31.5131 26.1308 31.9994C24.4824 32.764 23.4888 32.1725 22.3314 32.6191C21.3868 32.9815 20.2622 34.0617 19.6332 37.3187C19.9489 36.795 20.69 35.7101 22.0157 34.9385C22.8317 34.4639 23.615 34.2558 24.2673 34.1739C22.8621 35.1115 22.0882 36.1567 21.6533 36.9142C19.7501 40.2321 20.4516 44.8383 23.2362 48.8131C25.0342 49.0165 27.0637 49.0306 29.2452 48.6682C39.4276 46.98 45.2354 38.3733 46.7529 35.9603C44.368 39.8089 40.6902 41.4783 38.2679 40.4823L38.2609 40.4776ZM18.525 18.8216C18.2397 18.9104 17.9007 18.9128 17.7978 18.9151C17.4541 18.9175 16.6989 18.8684 16.6521 18.6766C16.6054 18.4919 17.2086 18.0757 19.8764 17.089C19.832 17.2574 19.4742 18.5246 18.5273 18.8216H18.525Z" fill="url(#paint1_linear_362_22069)"/>
<path d="M38.9033 34.9434C38.8285 34.8919 38.77 34.8358 38.7209 34.7773L36.3945 37.1038C36.4366 37.3353 36.4997 37.5668 36.5979 37.8006C36.6143 37.838 36.6587 37.9432 36.7359 38.0858L39.7708 35.0509C39.7474 35.0603 39.7217 35.0696 39.6983 35.0766C39.4107 35.1514 39.1301 35.1047 38.9033 34.9457V34.9434Z" fill="url(#paint2_linear_362_22069)"/>
<path d="M9.2202 19.6526L25.5402 3.33463L34.3151 12.1097C34.785 11.9881 35.1194 11.8946 35.3064 11.8385C35.3228 11.8338 35.3368 11.8291 35.3508 11.8245L25.5402 2.01123L8.20312 19.3487C8.57722 19.4936 8.91858 19.5965 9.22254 19.6526H9.2202Z" fill="url(#paint3_linear_362_22069)"/>
<path d="M47.8526 25.6472L42.5942 30.9058C42.5545 31.3781 42.4236 31.8434 42.1804 32.3578C42.0822 32.5658 41.963 32.7786 41.832 32.9937L49.176 25.6496L38.0233 14.4966C37.7941 14.707 37.5556 14.9081 37.3008 15.0975L47.8526 25.6496V25.6472Z" fill="url(#paint4_linear_362_22069)"/>
<path d="M19.707 42.1283C14.2125 36.6337 8.72025 31.139 3.22571 25.6443L6.01273 22.8573C5.84439 22.5299 5.73216 22.2049 5.655 21.8916L1.90234 25.6443C7.9253 31.7282 13.9482 37.8098 19.9712 43.8937C19.8824 43.3044 19.7958 42.7152 19.707 42.1283Z" fill="url(#paint5_linear_362_22069)"/>
<path d="M25.3703 49.0004C38.4176 49.0004 48.9945 38.4233 48.9945 25.3757C48.9945 12.3281 38.4176 1.75098 25.3703 1.75098C12.323 1.75098 1.74609 12.3281 1.74609 25.3757C1.74609 38.4233 12.323 49.0004 25.3703 49.0004Z" stroke="url(#paint6_linear_362_22069)" stroke-width="2" stroke-miterlimit="10"/>
<defs>
<linearGradient id="paint0_linear_362_22069" x1="28.0418" y1="0.380292" x2="28.0418" y2="12.9736" gradientUnits="userSpaceOnUse">
<stop stop-color="#AAD8FA"/>
<stop offset="1" stop-color="#26B3F8"/>
</linearGradient>
<linearGradient id="paint1_linear_362_22069" x1="39.5281" y1="46.3323" x2="20.4392" y2="10.7226" gradientUnits="userSpaceOnUse">
<stop stop-color="#00E9CC"/>
<stop offset="0.76" stop-color="#60A0F7"/>
<stop offset="1" stop-color="#2B87D4"/>
</linearGradient>
<linearGradient id="paint2_linear_362_22069" x1="33.3768" y1="51.6514" x2="46.4648" y2="8.3311" gradientUnits="userSpaceOnUse">
<stop stop-color="#2ACAD8"/>
<stop offset="1" stop-color="#60A0F7"/>
</linearGradient>
<linearGradient id="paint3_linear_362_22069" x1="12.7634" y1="45.4241" x2="25.8497" y2="2.10548" gradientUnits="userSpaceOnUse">
<stop stop-color="#2ACAD8"/>
<stop offset="1" stop-color="#60A0F7"/>
</linearGradient>
<linearGradient id="paint4_linear_362_22069" x1="33.7535" y1="51.7659" x2="46.8415" y2="8.44558" gradientUnits="userSpaceOnUse">
<stop stop-color="#2ACAD8"/>
<stop offset="1" stop-color="#60A0F7"/>
</linearGradient>
<linearGradient id="paint5_linear_362_22069" x1="7.56424" y1="45.9373" x2="21.927" y2="-1.60719" gradientUnits="userSpaceOnUse">
<stop stop-color="#2ACAD8"/>
<stop offset="1" stop-color="#60A0F7"/>
</linearGradient>
<linearGradient id="paint6_linear_362_22069" x1="36.9205" y1="46.9241" x2="13.8192" y2="3.82769" gradientUnits="userSpaceOnUse">
<stop stop-color="#2AFFD8"/>
<stop offset="1" stop-color="#60A0F7"/>
</linearGradient>
</defs>
</svg>
