<svg width="24" height="24" viewBox="0 0 24 24" fill="none" xmlns="http://www.w3.org/2000/svg">
<g clip-path="url(#clip0_329_22937)">
<path d="M14.7583 20.1064L15.5673 17.9807L14.2689 17.4865L13.4589 19.6148L13.4579 19.6173C13.3434 19.9217 13.0134 20.0657 12.7228 19.9531L9.00484 18.5416L9.00284 18.5408C8.69846 18.4263 8.55446 18.0963 8.66705 17.8057L9.47849 15.6736L8.18004 15.1794L7.37074 17.3059C6.97685 18.3261 7.49656 19.4579 8.51264 19.8408L8.51373 19.8412L12.2233 21.2495C13.2433 21.6431 14.3748 21.1236 14.7577 20.1079L14.7583 20.1064ZM5.36364 11.4152L4.61915 14.0862C4.62567 14.7599 4.08148 15.3087 3.40745 15.3046C2.7389 15.3056 2.19015 14.7614 2.18912 14.0929L2.1695 8.72363C2.16847 8.05507 2.71266 7.50632 3.38121 7.50529C4.04976 7.50425 4.5985 8.04844 4.59954 8.71699L5.36364 11.4152Z" fill="#FFB02E"/>
<path d="M21.3055 17.6807L21.2565 5.05348C21.2526 3.66337 19.8519 2.71245 18.5585 3.22778L4.60014 8.7176L4.62187 14.1505L18.624 19.537C19.9141 20.0352 21.3094 19.0708 21.3055 17.6807Z" fill="#F9C23C"/>
</g>
<defs>
<clipPath id="clip0_329_22937">
<rect width="24" height="24" fill="white"/>
</clipPath>
</defs>
</svg>
