<svg width="24" height="24" viewBox="0 0 24 24" fill="none" xmlns="http://www.w3.org/2000/svg">
<path d="M21.2628 6.55823C22.8502 7.08596 24 8.55851 24 10.3119C24 12.0654 22.8416 13.5379 21.237 14.0657C21.2714 14.2785 21.3057 14.4998 21.3057 14.7296C21.3057 16.9256 19.5123 18.7046 17.2985 18.7046C16.3547 18.7046 15.5052 18.3641 14.8187 17.8279C14.3211 18.8834 13.2399 19.6154 11.9871 19.6154C10.7344 19.6154 9.66178 18.8834 9.15552 17.8279C8.46907 18.3727 7.61959 18.7046 6.67572 18.7046C4.46192 18.7046 2.66857 16.9256 2.66857 14.7296C2.66857 14.5077 2.70057 14.3017 2.73366 14.0886L2.73722 14.0657C1.1498 13.5379 0 12.0654 0 10.3119C0 8.55851 1.1498 7.08596 2.7458 6.54972C2.71148 6.33692 2.67715 6.11561 2.67715 5.88579C2.67715 3.68974 4.4705 1.91077 6.6843 1.91077C7.62817 1.91077 8.47766 2.25124 9.1641 2.78749C9.66178 1.73202 10.7429 1 11.9957 1C13.2571 1 14.3296 1.73202 14.8445 2.796C15.5309 2.25124 16.3804 1.91928 17.3243 1.91928C19.5381 1.91928 21.3314 3.69825 21.3314 5.89431C21.3314 6.11619 21.2994 6.32221 21.2663 6.53534L21.2628 6.55823Z" fill="#E1D8EC"/>
<path d="M4.28571 20.8846C4.28571 22.0529 3.32632 23 2.14286 23C0.95939 23 0 22.0529 0 20.8846C0 19.7163 0.95939 18.7692 2.14286 18.7692C3.32632 18.7692 4.28571 19.7163 4.28571 20.8846Z" fill="#E1D8EC"/>
</svg>
