<svg width="24" height="24" viewBox="0 0 24 24" fill="none" xmlns="http://www.w3.org/2000/svg">
<path d="M21 14.8628C21 20.0908 16.6707 24.2958 11.443 23.9837C6.06981 23.6629 2.39074 18.4955 3.08378 13.0941C3.50302 9.80818 5.04309 6.99042 6.72007 4.80557C7.01097 4.42409 7.43656 6.07533 7.73602 5.7372C8.03548 5.3904 10.69 1.99648 11.6569 0.305823C11.8365 -0.00629854 12.2472 -0.101669 12.5381 0.123752C14.4803 1.58899 21 7.09446 21 14.8628Z" fill="#FF6723"/>
<path d="M17.4426 18.4731C17.4426 21.6348 14.8243 24.1779 11.6628 23.9892C8.41319 23.7951 6.18817 20.6701 6.60731 17.4034C6.86085 15.4161 7.79226 13.712 8.80645 12.3907C8.98238 12.16 9.23977 13.1586 9.42088 12.9541C9.60199 12.7444 11.2074 10.6918 11.7921 9.66933C11.9008 9.48057 12.1492 9.42289 12.3251 9.55922C13.4997 10.4454 17.4426 13.7749 17.4426 18.4731Z" fill="#FFB02E"/>
</svg>
