<svg width="24" height="24" viewBox="0 0 24 24" fill="none" xmlns="http://www.w3.org/2000/svg">
<path d="M19.6347 14.7079C21.1756 14.7079 22.4247 13.4588 22.4247 11.9179C22.4247 10.3771 21.1756 9.12793 19.6347 9.12793C18.0939 9.12793 16.8447 10.3771 16.8447 11.9179C16.8447 13.4588 18.0939 14.7079 19.6347 14.7079Z" fill="#FF9F00"/>
<path d="M8.25041 8.24991L8.7604 7.49988C9.6979 7.49988 10.6279 7.28238 11.4679 6.87738L16.1629 4.56738V19.2824L11.4679 16.9724C10.6279 16.5599 9.6979 16.3424 8.7604 16.3424L8.25041 14.9999V8.24991ZM4.66238 21.7561H6.59291C7.09541 21.7561 7.50041 21.3511 7.50041 20.8486V14.9174H3.75488V20.8486C3.75488 21.3511 4.15988 21.7561 4.66238 21.7561Z" fill="#FFCC51"/>
<path d="M18.0525 2.25C16.785 2.25 15.75 3.2775 15.75 4.5525V19.29C15.75 20.5575 16.7775 21.5925 18.0525 21.5925C19.32 21.5925 20.355 20.565 20.355 19.29V4.5525C20.3475 3.2775 19.32 2.25 18.0525 2.25Z" fill="#FFB02E"/>
<path d="M2.79496 7.5H9V16.335H2.79496C2.07811 16.335 1.5 15.7725 1.5 15.0825V8.76C1.5 8.0625 2.07811 7.5 2.79496 7.5Z" fill="#FFB02E"/>
</svg>
