<svg width="24" height="24" viewBox="0 0 24 24" fill="none" xmlns="http://www.w3.org/2000/svg">
<path d="M12.625 7.5H18.75C19.6115 7.5 20.25 8.13844 20.25 9V9.75L10.5 17.625L1.95703 21.1729C1.66574 20.7227 1.5 20.0796 1.5 19.5V6.06025C1.5 5.1987 2.19867 4.5 3.0602 4.5H8.0665C8.67299 4.5 9.25467 4.74007 9.68473 5.16781L11.5243 7.04068C11.8168 7.33129 12.2127 7.5 12.625 7.5Z" fill="#FFB02E"/>
<path d="M20.9339 9.75H8.16522C7.59657 9.75011 7.04183 9.92592 6.57692 10.2534C6.11201 10.5808 5.75962 11.0438 5.56796 11.5792C2.12471 21.453 2.40896 20.7434 2.32196 20.8544C2.28515 20.9112 2.23488 20.9581 2.17561 20.9908C2.11634 21.0236 2.0499 21.0411 1.98221 21.0419C1.93384 21.0413 1.88659 21.0273 1.8457 21.0015C2.10197 21.4837 2.49198 21.8818 2.96892 22.1479C3.44586 22.414 3.98947 22.5367 4.53447 22.5015H17.9984C18.3257 22.4999 18.6438 22.3931 18.9057 22.1969C19.1676 22.0006 19.3594 21.7254 19.4527 21.4117L22.4242 11.7855C22.4983 11.5512 22.5162 11.3028 22.4764 11.0603C22.4366 10.8178 22.3402 10.5882 22.195 10.39C22.0499 10.1917 21.8601 10.0305 21.641 9.91928C21.4219 9.80809 21.1796 9.7501 20.9339 9.75Z" fill="#FCD53F"/>
</svg>
